<svg xmlns="http://www.w3.org/2000/svg" xmlns:xlink="http://www.w3.org/1999/xlink" contentStyleType="text/css" height="748px" preserveAspectRatio="none" style="width:759px;height:748px;background:#FFFFFF;" version="1.1" viewBox="0 0 759 748" width="759px" zoomAndPan="magnify"><defs/><g><!--class HentDokumentResultat--><g id="elem_HentDokumentResultat"><rect codeLine="2" fill="#F1F1F1" height="64.4883" id="HentDokumentResultat" rx="2.5" ry="2.5" style="stroke:#181818;stroke-width:0.5;" width="190" x="177.5" y="7"/><ellipse cx="192.5" cy="23" fill="#ADD1B2" rx="11" ry="11" style="stroke:#181818;stroke-width:1.0;"/><path d="M194.9731,29.1431 Q194.3921,29.4419 193.7529,29.5913 Q193.1138,29.7407 192.4082,29.7407 Q189.9014,29.7407 188.5815,28.0889 Q187.2617,26.437 187.2617,23.3159 Q187.2617,20.1865 188.5815,18.5347 Q189.9014,16.8828 192.4082,16.8828 Q193.1138,16.8828 193.7612,17.0322 Q194.4087,17.1816 194.9731,17.4805 L194.9731,20.2031 Q194.3423,19.6221 193.7488,19.3523 Q193.1553,19.0825 192.5244,19.0825 Q191.1797,19.0825 190.4949,20.1492 Q189.8101,21.2158 189.8101,23.3159 Q189.8101,25.4077 190.4949,26.4744 Q191.1797,27.541 192.5244,27.541 Q193.1553,27.541 193.7488,27.2712 Q194.3423,27.0015 194.9731,26.4204 Z " fill="#000000"/><text fill="#000000" font-family="sans-serif" font-size="14" lengthAdjust="spacing" textLength="158" x="206.5" y="28.291">HentDokumentResultat</text><line style="stroke:#181818;stroke-width:0.5;" x1="178.5" x2="366.5" y1="39" y2="39"/><ellipse cx="188.5" cy="52.7441" fill="none" rx="3" ry="3" style="stroke:#038048;stroke-width:1.0;"/><text fill="#000000" font-family="sans-serif" font-size="14" lengthAdjust="spacing" textLength="149" x="197.5" y="56.5352">dokument: Dokument</text><line style="stroke:#181818;stroke-width:0.5;" x1="178.5" x2="366.5" y1="63.4883" y2="63.4883"/></g><!--class Dokument--><g id="elem_Dokument"><rect codeLine="8" fill="#F1F1F1" height="262.3477" id="Dokument" rx="2.5" ry="2.5" style="stroke:#181818;stroke-width:0.5;" width="359" x="93" y="131.49"/><ellipse cx="232.75" cy="147.49" fill="#ADD1B2" rx="11" ry="11" style="stroke:#181818;stroke-width:1.0;"/><path d="M235.2231,153.6331 Q234.6421,153.9319 234.0029,154.0813 Q233.3638,154.2307 232.6582,154.2307 Q230.1514,154.2307 228.8315,152.5789 Q227.5117,150.927 227.5117,147.8059 Q227.5117,144.6765 228.8315,143.0247 Q230.1514,141.3728 232.6582,141.3728 Q233.3638,141.3728 234.0112,141.5222 Q234.6587,141.6716 235.2231,141.9705 L235.2231,144.6931 Q234.5923,144.1121 233.9988,143.8423 Q233.4053,143.5725 232.7744,143.5725 Q231.4297,143.5725 230.7449,144.6392 Q230.0601,145.7058 230.0601,147.8059 Q230.0601,149.8977 230.7449,150.9644 Q231.4297,152.031 232.7744,152.031 Q233.4053,152.031 233.9988,151.7612 Q234.5923,151.4915 235.2231,150.9104 Z " fill="#000000"/><text fill="#000000" font-family="sans-serif" font-size="14" lengthAdjust="spacing" textLength="71" x="253.25" y="152.781">Dokument</text><line style="stroke:#181818;stroke-width:0.5;" x1="94" x2="451" y1="163.49" y2="163.49"/><ellipse cx="104" cy="177.2341" fill="none" rx="3" ry="3" style="stroke:#038048;stroke-width:1.0;"/><text fill="#000000" font-family="sans-serif" font-size="14" lengthAdjust="spacing" textLength="108" x="113" y="181.0252">systemId: string</text><ellipse cx="104" cy="193.7224" fill="none" rx="3" ry="3" style="stroke:#038048;stroke-width:1.0;"/><text fill="#000000" font-family="sans-serif" font-size="14" lengthAdjust="spacing" textLength="79" x="113" y="197.5134">tittel: string</text><ellipse cx="104" cy="210.2107" fill="none" rx="3" ry="3" style="stroke:#038048;stroke-width:1.0;"/><text fill="#000000" font-family="sans-serif" font-size="14" lengthAdjust="spacing" textLength="94" x="113" y="214.0017">filnavn: string</text><ellipse cx="104" cy="226.699" fill="none" rx="3" ry="3" style="stroke:#038048;stroke-width:1.0;"/><text fill="#000000" font-family="sans-serif" font-size="14" lengthAdjust="spacing" textLength="142" x="113" y="230.49">dokumenttype: Kode</text><ellipse cx="104" cy="243.1873" fill="none" rx="3" ry="3" style="stroke:#038048;stroke-width:1.0;"/><text fill="#000000" font-family="sans-serif" font-size="14" lengthAdjust="spacing" textLength="197" x="113" y="246.9783">referanseDokumentfil: string</text><ellipse cx="104" cy="259.6755" fill="none" rx="3" ry="3" style="stroke:#038048;stroke-width:1.0;"/><text fill="#000000" font-family="sans-serif" font-size="14" lengthAdjust="spacing" textLength="115" x="113" y="263.4666">mimetype: string</text><ellipse cx="104" cy="276.1638" fill="none" rx="3" ry="3" style="stroke:#038048;stroke-width:1.0;"/><text fill="#000000" font-family="sans-serif" font-size="14" lengthAdjust="spacing" textLength="146" x="113" y="279.9548">dokumentsdato: date</text><ellipse cx="104" cy="292.6521" fill="none" rx="3" ry="3" style="stroke:#038048;stroke-width:1.0;"/><text fill="#000000" font-family="sans-serif" font-size="14" lengthAdjust="spacing" textLength="136" x="113" y="296.4431">variantformat: Kode</text><ellipse cx="104" cy="309.1404" fill="none" rx="3" ry="3" style="stroke:#038048;stroke-width:1.0;"/><text fill="#000000" font-family="sans-serif" font-size="14" lengthAdjust="spacing" textLength="190" x="113" y="312.9314">dokumentnummer: number</text><ellipse cx="104" cy="325.6287" fill="none" rx="3" ry="3" style="stroke:#038048;stroke-width:1.0;"/><text fill="#000000" font-family="sans-serif" font-size="14" lengthAdjust="spacing" textLength="154" x="113" y="329.4197">dokumentstatus: Kode</text><ellipse cx="104" cy="342.117" fill="none" rx="3" ry="3" style="stroke:#038048;stroke-width:1.0;"/><text fill="#000000" font-family="sans-serif" font-size="14" lengthAdjust="spacing" textLength="89" x="113" y="345.908">format: Kode</text><ellipse cx="104" cy="358.6052" fill="none" rx="3" ry="3" style="stroke:#038048;stroke-width:1.0;"/><text fill="#000000" font-family="sans-serif" font-size="14" lengthAdjust="spacing" textLength="217" x="113" y="362.3963">tilknyttetRegistreringSom: Kode</text><ellipse cx="104" cy="375.0935" fill="none" rx="3" ry="3" style="stroke:#038048;stroke-width:1.0;"/><text fill="#000000" font-family="sans-serif" font-size="14" lengthAdjust="spacing" textLength="333" x="113" y="378.8845">referanseTilJournalpost: ReferanseTilJournalpost</text><line style="stroke:#181818;stroke-width:0.5;" x1="94" x2="451" y1="385.8377" y2="385.8377"/></g><!--class Kode--><g id="elem_Kode"><rect fill="#F1F1F1" height="48" id="Kode" rx="2.5" ry="2.5" style="stroke:#181818;stroke-width:0.5;" width="67" x="110" y="495.05"/><ellipse cx="125" cy="511.05" fill="#ADD1B2" rx="11" ry="11" style="stroke:#181818;stroke-width:1.0;"/><path d="M127.4731,517.1931 Q126.8921,517.4919 126.2529,517.6413 Q125.6138,517.7907 124.9082,517.7907 Q122.4014,517.7907 121.0815,516.1389 Q119.7617,514.487 119.7617,511.3659 Q119.7617,508.2365 121.0815,506.5847 Q122.4014,504.9328 124.9082,504.9328 Q125.6138,504.9328 126.2612,505.0822 Q126.9087,505.2316 127.4731,505.5305 L127.4731,508.2531 Q126.8423,507.6721 126.2488,507.4023 Q125.6553,507.1325 125.0244,507.1325 Q123.6797,507.1325 122.9949,508.1992 Q122.3101,509.2658 122.3101,511.3659 Q122.3101,513.4577 122.9949,514.5244 Q123.6797,515.591 125.0244,515.591 Q125.6553,515.591 126.2488,515.3212 Q126.8423,515.0515 127.4731,514.4704 Z " fill="#000000"/><text fill="#000000" font-family="sans-serif" font-size="14" lengthAdjust="spacing" textLength="35" x="139" y="516.341">Kode</text><line style="stroke:#181818;stroke-width:0.5;" x1="111" x2="176" y1="527.05" y2="527.05"/><line style="stroke:#181818;stroke-width:0.5;" x1="111" x2="176" y1="535.05" y2="535.05"/></g><!--class ReferanseTilJournalpost--><g id="elem_ReferanseTilJournalpost"><rect codeLine="28" fill="#F1F1F1" height="130.4414" id="ReferanseTilJournalpost" rx="2.5" ry="2.5" style="stroke:#181818;stroke-width:0.5;" width="379" x="212" y="453.83"/><ellipse cx="315.25" cy="469.83" fill="#ADD1B2" rx="11" ry="11" style="stroke:#181818;stroke-width:1.0;"/><path d="M317.7231,475.9731 Q317.1421,476.2719 316.5029,476.4213 Q315.8638,476.5707 315.1582,476.5707 Q312.6514,476.5707 311.3315,474.9189 Q310.0117,473.267 310.0117,470.1459 Q310.0117,467.0165 311.3315,465.3647 Q312.6514,463.7128 315.1582,463.7128 Q315.8638,463.7128 316.5112,463.8622 Q317.1587,464.0116 317.7231,464.3105 L317.7231,467.0331 Q317.0923,466.4521 316.4988,466.1823 Q315.9053,465.9125 315.2744,465.9125 Q313.9297,465.9125 313.2449,466.9792 Q312.5601,468.0458 312.5601,470.1459 Q312.5601,472.2377 313.2449,473.3044 Q313.9297,474.371 315.2744,474.371 Q315.9053,474.371 316.4988,474.1012 Q317.0923,473.8315 317.7231,473.2504 Z " fill="#000000"/><text fill="#000000" font-family="sans-serif" font-size="14" lengthAdjust="spacing" textLength="164" x="335.75" y="475.121">ReferanseTilJournalpost</text><line style="stroke:#181818;stroke-width:0.5;" x1="213" x2="590" y1="485.83" y2="485.83"/><ellipse cx="223" cy="499.5741" fill="none" rx="3" ry="3" style="stroke:#038048;stroke-width:1.0;"/><text fill="#000000" font-family="sans-serif" font-size="14" lengthAdjust="spacing" textLength="108" x="232" y="503.3652">systemId: string</text><ellipse cx="223" cy="516.0624" fill="none" rx="3" ry="3" style="stroke:#038048;stroke-width:1.0;"/><text fill="#000000" font-family="sans-serif" font-size="14" lengthAdjust="spacing" textLength="150" x="232" y="519.8534">registreringsID: string</text><ellipse cx="223" cy="532.5507" fill="none" rx="3" ry="3" style="stroke:#038048;stroke-width:1.0;"/><text fill="#000000" font-family="sans-serif" font-size="14" lengthAdjust="spacing" textLength="222" x="232" y="536.3417">journalnummer: Journalnummer</text><ellipse cx="223" cy="549.039" fill="none" rx="3" ry="3" style="stroke:#038048;stroke-width:1.0;"/><text fill="#000000" font-family="sans-serif" font-size="14" lengthAdjust="spacing" textLength="343" x="232" y="552.83">saksJournalpostnummer: SaksJournalpostnummer</text><ellipse cx="223" cy="565.5273" fill="none" rx="3" ry="3" style="stroke:#038048;stroke-width:1.0;"/><text fill="#000000" font-family="sans-serif" font-size="14" lengthAdjust="spacing" textLength="353" x="232" y="569.3183">referanseEksternNoekkel: ReferanseEksternNoekkel</text><line style="stroke:#181818;stroke-width:0.5;" x1="213" x2="590" y1="576.2714" y2="576.2714"/></g><!--class Journalnummer--><g id="elem_Journalnummer"><rect codeLine="45" fill="#F1F1F1" height="80.9766" id="Journalnummer" rx="2.5" ry="2.5" style="stroke:#181818;stroke-width:0.5;" width="249" x="7" y="652.52"/><ellipse cx="73.75" cy="668.52" fill="#ADD1B2" rx="11" ry="11" style="stroke:#181818;stroke-width:1.0;"/><path d="M76.2231,674.6631 Q75.6421,674.9619 75.0029,675.1113 Q74.3638,675.2607 73.6582,675.2607 Q71.1514,675.2607 69.8315,673.6089 Q68.5117,671.957 68.5117,668.8359 Q68.5117,665.7065 69.8315,664.0547 Q71.1514,662.4028 73.6582,662.4028 Q74.3638,662.4028 75.0112,662.5522 Q75.6587,662.7016 76.2231,663.0005 L76.2231,665.7231 Q75.5923,665.1421 74.9988,664.8723 Q74.4053,664.6025 73.7744,664.6025 Q72.4297,664.6025 71.7449,665.6692 Q71.0601,666.7358 71.0601,668.8359 Q71.0601,670.9277 71.7449,671.9944 Q72.4297,673.061 73.7744,673.061 Q74.4053,673.061 74.9988,672.7912 Q75.5923,672.5215 76.2231,671.9404 Z " fill="#000000"/><text fill="#000000" font-family="sans-serif" font-size="14" lengthAdjust="spacing" textLength="107" x="94.25" y="673.811">Journalnummer</text><line style="stroke:#181818;stroke-width:0.5;" x1="8" x2="255" y1="684.52" y2="684.52"/><ellipse cx="18" cy="698.2641" fill="none" rx="3" ry="3" style="stroke:#038048;stroke-width:1.0;"/><text fill="#000000" font-family="sans-serif" font-size="14" lengthAdjust="spacing" textLength="133" x="27" y="702.0552">journalaar: number</text><ellipse cx="18" cy="714.7524" fill="none" rx="3" ry="3" style="stroke:#038048;stroke-width:1.0;"/><text fill="#000000" font-family="sans-serif" font-size="14" lengthAdjust="spacing" textLength="223" x="27" y="718.5434">journalsekvensnummer: number</text><line style="stroke:#181818;stroke-width:0.5;" x1="8" x2="255" y1="725.4966" y2="725.4966"/></g><!--class SaksJournalpostnummer--><g id="elem_SaksJournalpostnummer"><rect codeLine="51" fill="#F1F1F1" height="97.4648" id="SaksJournalpostnummer" rx="2.5" ry="2.5" style="stroke:#181818;stroke-width:0.5;" width="221" x="291" y="644.28"/><ellipse cx="315.45" cy="660.28" fill="#ADD1B2" rx="11" ry="11" style="stroke:#181818;stroke-width:1.0;"/><path d="M317.9231,666.4231 Q317.3421,666.7219 316.7029,666.8713 Q316.0638,667.0207 315.3582,667.0207 Q312.8514,667.0207 311.5315,665.3689 Q310.2117,663.717 310.2117,660.5959 Q310.2117,657.4665 311.5315,655.8147 Q312.8514,654.1628 315.3582,654.1628 Q316.0638,654.1628 316.7112,654.3122 Q317.3587,654.4616 317.9231,654.7605 L317.9231,657.4831 Q317.2923,656.9021 316.6988,656.6323 Q316.1053,656.3625 315.4744,656.3625 Q314.1297,656.3625 313.4449,657.4292 Q312.7601,658.4958 312.7601,660.5959 Q312.7601,662.6877 313.4449,663.7544 Q314.1297,664.821 315.4744,664.821 Q316.1053,664.821 316.6988,664.5512 Q317.2923,664.2815 317.9231,663.7004 Z " fill="#000000"/><text fill="#000000" font-family="sans-serif" font-size="14" lengthAdjust="spacing" textLength="168" x="331.55" y="665.571">SaksJournalpostnummer</text><line style="stroke:#181818;stroke-width:0.5;" x1="292" x2="511" y1="676.28" y2="676.28"/><ellipse cx="302" cy="690.0241" fill="none" rx="3" ry="3" style="stroke:#038048;stroke-width:1.0;"/><text fill="#000000" font-family="sans-serif" font-size="14" lengthAdjust="spacing" textLength="185" x="311" y="693.8152">journalpostnummer: string</text><ellipse cx="302" cy="706.5124" fill="none" rx="3" ry="3" style="stroke:#038048;stroke-width:1.0;"/><text fill="#000000" font-family="sans-serif" font-size="14" lengthAdjust="spacing" textLength="114" x="311" y="710.3034">saksaar: number</text><ellipse cx="302" cy="723.0007" fill="none" rx="3" ry="3" style="stroke:#038048;stroke-width:1.0;"/><text fill="#000000" font-family="sans-serif" font-size="14" lengthAdjust="spacing" textLength="195" x="311" y="726.7917">sakssekvensummer: number</text><line style="stroke:#181818;stroke-width:0.5;" x1="292" x2="511" y1="733.7448" y2="733.7448"/></g><!--class ReferanseEksternNoekkel--><g id="elem_ReferanseEksternNoekkel"><rect codeLine="40" fill="#F1F1F1" height="80.9766" id="ReferanseEksternNoekkel" rx="2.5" ry="2.5" style="stroke:#181818;stroke-width:0.5;" width="206" x="546.5" y="652.52"/><ellipse cx="561.5" cy="668.52" fill="#ADD1B2" rx="11" ry="11" style="stroke:#181818;stroke-width:1.0;"/><path d="M563.9731,674.6631 Q563.3921,674.9619 562.7529,675.1113 Q562.1138,675.2607 561.4082,675.2607 Q558.9014,675.2607 557.5815,673.6089 Q556.2617,671.957 556.2617,668.8359 Q556.2617,665.7065 557.5815,664.0547 Q558.9014,662.4028 561.4082,662.4028 Q562.1138,662.4028 562.7612,662.5522 Q563.4087,662.7016 563.9731,663.0005 L563.9731,665.7231 Q563.3423,665.1421 562.7488,664.8723 Q562.1553,664.6025 561.5244,664.6025 Q560.1797,664.6025 559.4949,665.6692 Q558.8101,666.7358 558.8101,668.8359 Q558.8101,670.9277 559.4949,671.9944 Q560.1797,673.061 561.5244,673.061 Q562.1553,673.061 562.7488,672.7912 Q563.3423,672.5215 563.9731,671.9404 Z " fill="#000000"/><text fill="#000000" font-family="sans-serif" font-size="14" lengthAdjust="spacing" textLength="174" x="575.5" y="673.811">ReferanseEksternNoekkel</text><line style="stroke:#181818;stroke-width:0.5;" x1="547.5" x2="751.5" y1="684.52" y2="684.52"/><ellipse cx="557.5" cy="698.2641" fill="none" rx="3" ry="3" style="stroke:#038048;stroke-width:1.0;"/><text fill="#000000" font-family="sans-serif" font-size="14" lengthAdjust="spacing" textLength="117" x="566.5" y="702.0552">fagsystem: string</text><ellipse cx="557.5" cy="714.7524" fill="none" rx="3" ry="3" style="stroke:#038048;stroke-width:1.0;"/><text fill="#000000" font-family="sans-serif" font-size="14" lengthAdjust="spacing" textLength="102" x="566.5" y="718.5434">noekkel: string</text><line style="stroke:#181818;stroke-width:0.5;" x1="547.5" x2="751.5" y1="725.4966" y2="725.4966"/></g><!--link HentDokumentResultat to Dokument--><g id="link_HentDokumentResultat_Dokument"><path codeLine="6" d="M272.5,71.97 C272.5,88.23 272.5,109.24 272.5,131.32 " fill="none" id="HentDokumentResultat-Dokument" style="stroke:#181818;stroke-width:1.0;"/></g><!--link Dokument to Kode--><g id="link_Dokument_Kode"><path codeLine="25" d="M206.3,394.21 C186.63,433.01 167.17,471.38 155.24,494.9 " fill="none" id="Dokument-Kode" style="stroke:#181818;stroke-width:1.0;"/></g><!--link Dokument to ReferanseTilJournalpost--><g id="link_Dokument_ReferanseTilJournalpost"><path codeLine="26" d="M338.7,394.21 C349.16,414.83 359.55,435.33 368.79,453.54 " fill="none" id="Dokument-ReferanseTilJournalpost" style="stroke:#181818;stroke-width:1.0;"/></g><!--link ReferanseTilJournalpost to Journalnummer--><g id="link_ReferanseTilJournalpost_Journalnummer"><path codeLine="36" d="M300.19,584.57 C264.58,607.25 225.63,632.06 194.13,652.12 " fill="none" id="ReferanseTilJournalpost-Journalnummer" style="stroke:#181818;stroke-width:1.0;"/></g><!--link ReferanseTilJournalpost to SaksJournalpostnummer--><g id="link_ReferanseTilJournalpost_SaksJournalpostnummer"><path codeLine="37" d="M401.5,584.57 C401.5,604.2 401.5,625.43 401.5,643.79 " fill="none" id="ReferanseTilJournalpost-SaksJournalpostnummer" style="stroke:#181818;stroke-width:1.0;"/></g><!--link ReferanseTilJournalpost to ReferanseEksternNoekkel--><g id="link_ReferanseTilJournalpost_ReferanseEksternNoekkel"><path codeLine="38" d="M494.55,584.57 C527.26,607.25 563.04,632.06 591.97,652.12 " fill="none" id="ReferanseTilJournalpost-ReferanseEksternNoekkel" style="stroke:#181818;stroke-width:1.0;"/></g><!--SRC=[VLBBRW8n3BplL-HUyGDxfbAXKW_G7t1PWzAyK9n5GXN_NY-Rj4d8ieUDClQCxN4E6eZ46zgmTceqVEwGHXqWY9zEyFSoHBmNAQExTLsJiLhzvtI7ktAw9pMwKa2p6Nf1mKjxcj4WGq1TOaUfBLni2QPcmlMClNXt0ywunoDwi8If7hDBff46PrPBZmO8hXVyZu8Ny19Onda38Q-K67Oq1dql-Fn2Nwcn6IFbh4UT8BMoLnwRxJj9xWcdhlREDCVwb7hhHcz1dnsnpguTkBEczVpPpYkvo-N04ZckR27yV8C-6u8swpBuFQiaoxRvDOg2egnMojotuCgQLyNzUFlXKAdf3UtQWScLfSdOaxAd9udjbfuGblgftIx3oUqZd6R3IqTjcZQ2joHNp954ely0rNkDEA6weANgHRDar6oEN6ddMyiRdHRxK7S2Oz6wvYy0]--></g></svg>