<svg xmlns="http://www.w3.org/2000/svg" xmlns:xlink="http://www.w3.org/1999/xlink" contentStyleType="text/css" height="385px" preserveAspectRatio="none" style="width:217px;height:385px;background:#FFFFFF;" version="1.1" viewBox="0 0 217 385" width="217px" zoomAndPan="magnify"><defs/><g><!--class HentPunktResultat--><g id="elem_HentPunktResultat"><rect codeLine="2" fill="#F1F1F1" height="64.4883" id="HentPunktResultat" rx="2.5" ry="2.5" style="stroke:#181818;stroke-width:0.5;" width="158" x="29.5" y="7"/><ellipse cx="44.5" cy="23" fill="#ADD1B2" rx="11" ry="11" style="stroke:#181818;stroke-width:1.0;"/><path d="M46.9731,29.1431 Q46.3921,29.4419 45.7529,29.5913 Q45.1138,29.7407 44.4082,29.7407 Q41.9014,29.7407 40.5815,28.0889 Q39.2617,26.437 39.2617,23.3159 Q39.2617,20.1865 40.5815,18.5347 Q41.9014,16.8828 44.4082,16.8828 Q45.1138,16.8828 45.7612,17.0322 Q46.4087,17.1816 46.9731,17.4805 L46.9731,20.2031 Q46.3423,19.6221 45.7488,19.3523 Q45.1553,19.0825 44.5244,19.0825 Q43.1797,19.0825 42.4949,20.1492 Q41.8101,21.2158 41.8101,23.3159 Q41.8101,25.4077 42.4949,26.4744 Q43.1797,27.541 44.5244,27.541 Q45.1553,27.541 45.7488,27.2712 Q46.3423,27.0015 46.9731,26.4204 Z " fill="#000000"/><text fill="#000000" font-family="sans-serif" font-size="14" lengthAdjust="spacing" textLength="126" x="58.5" y="28.291">HentPunktResultat</text><line style="stroke:#181818;stroke-width:0.5;" x1="30.5" x2="186.5" y1="39" y2="39"/><ellipse cx="40.5" cy="52.7441" fill="none" rx="3" ry="3" style="stroke:#038048;stroke-width:1.0;"/><text fill="#000000" font-family="sans-serif" font-size="14" lengthAdjust="spacing" textLength="87" x="49.5" y="56.5352">punkt: Punkt</text><line style="stroke:#181818;stroke-width:0.5;" x1="30.5" x2="186.5" y1="63.4883" y2="63.4883"/></g><!--class Punkt--><g id="elem_Punkt"><rect codeLine="8" fill="#F1F1F1" height="97.4648" id="Punkt" rx="2.5" ry="2.5" style="stroke:#181818;stroke-width:0.5;" width="203" x="7" y="131.49"/><ellipse cx="84.75" cy="147.49" fill="#ADD1B2" rx="11" ry="11" style="stroke:#181818;stroke-width:1.0;"/><path d="M87.2231,153.6331 Q86.6421,153.9319 86.0029,154.0813 Q85.3638,154.2307 84.6582,154.2307 Q82.1514,154.2307 80.8315,152.5789 Q79.5117,150.927 79.5117,147.8059 Q79.5117,144.6765 80.8315,143.0247 Q82.1514,141.3728 84.6582,141.3728 Q85.3638,141.3728 86.0112,141.5222 Q86.6587,141.6716 87.2231,141.9705 L87.2231,144.6931 Q86.5923,144.1121 85.9988,143.8423 Q85.4053,143.5725 84.7744,143.5725 Q83.4297,143.5725 82.7449,144.6392 Q82.0601,145.7058 82.0601,147.8059 Q82.0601,149.8977 82.7449,150.9644 Q83.4297,152.031 84.7744,152.031 Q85.4053,152.031 85.9988,151.7612 Q86.5923,151.4915 87.2231,150.9104 Z " fill="#000000"/><text fill="#000000" font-family="sans-serif" font-size="14" lengthAdjust="spacing" textLength="39" x="105.25" y="152.781">Punkt</text><line style="stroke:#181818;stroke-width:0.5;" x1="8" x2="209" y1="163.49" y2="163.49"/><ellipse cx="18" cy="177.2341" fill="none" rx="3" ry="3" style="stroke:#038048;stroke-width:1.0;"/><text fill="#000000" font-family="sans-serif" font-size="14" lengthAdjust="spacing" textLength="77" x="27" y="181.0252">type: string</text><ellipse cx="18" cy="193.7224" fill="none" rx="3" ry="3" style="stroke:#038048;stroke-width:1.0;"/><text fill="#000000" font-family="sans-serif" font-size="14" lengthAdjust="spacing" textLength="177" x="27" y="197.5134">koordinater: number[2-*]</text><ellipse cx="18" cy="210.2107" fill="none" rx="3" ry="3" style="stroke:#038048;stroke-width:1.0;"/><text fill="#000000" font-family="sans-serif" font-size="14" lengthAdjust="spacing" textLength="157" x="27" y="214.0017">koordinatsystem: Kode</text><line style="stroke:#181818;stroke-width:0.5;" x1="8" x2="209" y1="220.9548" y2="220.9548"/></g><!--class Koordinatsystem--><g id="elem_Koordinatsystem"><rect codeLine="16" fill="#F1F1F1" height="89.5977" id="Koordinatsystem" rx="2.5" ry="2.5" style="stroke:#181818;stroke-width:0.5;" width="184" x="16.5" y="288.95"/><ellipse cx="48.15" cy="309.2605" fill="#ADD1B2" rx="11" ry="11" style="stroke:#181818;stroke-width:1.0;"/><path d="M50.6231,315.4036 Q50.0421,315.7024 49.4029,315.8519 Q48.7638,316.0013 48.0582,316.0013 Q45.5514,316.0013 44.2315,314.3494 Q42.9117,312.6976 42.9117,309.5765 Q42.9117,306.4471 44.2315,304.7952 Q45.5514,303.1434 48.0582,303.1434 Q48.7638,303.1434 49.4112,303.2928 Q50.0587,303.4422 50.6231,303.741 L50.6231,306.4637 Q49.9923,305.8826 49.3988,305.6128 Q48.8053,305.3431 48.1744,305.3431 Q46.8297,305.3431 46.1449,306.4097 Q45.4601,307.4764 45.4601,309.5765 Q45.4601,311.6683 46.1449,312.7349 Q46.8297,313.8016 48.1744,313.8016 Q48.8053,313.8016 49.3988,313.5318 Q49.9923,313.262 50.6231,312.681 Z " fill="#000000"/><text fill="#000000" font-family="sans-serif" font-size="12" font-style="italic" lengthAdjust="spacing" textLength="42" x="102.35" y="305.5516">&#171;Kode&#187;</text><text fill="#000000" font-family="sans-serif" font-size="14" lengthAdjust="spacing" textLength="115" x="65.85" y="321.618">Koordinatsystem</text><line style="stroke:#181818;stroke-width:0.5;" x1="17.5" x2="199.5" y1="329.5711" y2="329.5711"/><ellipse cx="27.5" cy="343.3152" fill="none" rx="3" ry="3" style="stroke:#038048;stroke-width:1.0;"/><text fill="#000000" font-family="sans-serif" font-size="14" lengthAdjust="spacing" textLength="116" x="36.5" y="347.1063">kodeverdi: string</text><ellipse cx="27.5" cy="359.8035" fill="none" rx="3" ry="3" style="stroke:#038048;stroke-width:1.0;"/><text fill="#000000" font-family="sans-serif" font-size="14" lengthAdjust="spacing" textLength="158" x="36.5" y="363.5945">kodebeskrivelse: string</text><line style="stroke:#181818;stroke-width:0.5;" x1="17.5" x2="199.5" y1="370.5477" y2="370.5477"/></g><!--link HentPunktResultat to Punkt--><g id="link_HentPunktResultat_Punkt"><path codeLine="6" d="M108.5,71.78 C108.5,89.32 108.5,111.51 108.5,131.17 " fill="none" id="HentPunktResultat-Punkt" style="stroke:#181818;stroke-width:1.0;"/></g><!--link Punkt to Koordinatsystem--><g id="link_Punkt_Koordinatsystem"><path codeLine="14" d="M108.5,229.17 C108.5,248.15 108.5,269.85 108.5,288.46 " fill="none" id="Punkt-Koordinatsystem" style="stroke:#181818;stroke-width:1.0;"/></g><!--SRC=[PKuz2uCm4DtpAsvkoT8nY7F1fNGj7TGS9KGJoPs2YF-zKHjAqzlUrxtNTZKHND7nRNIMxqXZnpN38Y3UUTX81RicLY7-ZL9-LD7khtQGuZmFg80u6FSw6EjzqCRLZ4616_i6m-CYJyzCfPaOUmMLrxZr7bzZL_NhIAqPNHHRi2pJ3XlHXD6HZz7O8DbW9kpektGLRm00]--></g></svg>