<svg xmlns="http://www.w3.org/2000/svg" xmlns:xlink="http://www.w3.org/1999/xlink" contentStyleType="text/css" height="178px" preserveAspectRatio="none" style="width:327px;height:178px;background:#FFFFFF;" version="1.1" viewBox="0 0 327 178" width="327px" zoomAndPan="magnify"><defs/><g><!--class HentKartutsnitt--><g id="elem_HentKartutsnitt"><rect codeLine="2" fill="#F1F1F1" height="64.4883" id="HentKartutsnitt" rx="2.5" ry="2.5" style="stroke:#181818;stroke-width:0.5;" width="138" x="94" y="106.62"/><ellipse cx="109.9" cy="122.62" fill="#ADD1B2" rx="11" ry="11" style="stroke:#181818;stroke-width:1.0;"/><path d="M112.3731,128.7631 Q111.7921,129.0619 111.1529,129.2113 Q110.5138,129.3607 109.8082,129.3607 Q107.3014,129.3607 105.9815,127.7089 Q104.6617,126.057 104.6617,122.9359 Q104.6617,119.8065 105.9815,118.1547 Q107.3014,116.5028 109.8082,116.5028 Q110.5138,116.5028 111.1612,116.6522 Q111.8087,116.8016 112.3731,117.1005 L112.3731,119.8231 Q111.7423,119.2421 111.1488,118.9723 Q110.5553,118.7025 109.9244,118.7025 Q108.5797,118.7025 107.8949,119.7692 Q107.2101,120.8358 107.2101,122.9359 Q107.2101,125.0277 107.8949,126.0944 Q108.5797,127.161 109.9244,127.161 Q110.5553,127.161 111.1488,126.8912 Q111.7423,126.6215 112.3731,126.0404 Z " fill="#000000"/><text fill="#000000" font-family="sans-serif" font-size="14" lengthAdjust="spacing" textLength="104" x="124.1" y="127.911">HentKartutsnitt</text><line style="stroke:#181818;stroke-width:0.5;" x1="95" x2="231" y1="138.62" y2="138.62"/><ellipse cx="105" cy="152.3641" fill="none" rx="3" ry="3" style="stroke:#038048;stroke-width:1.0;"/><text fill="#000000" font-family="sans-serif" font-size="14" lengthAdjust="spacing" textLength="112" x="114" y="156.1552">sesjonsId: string</text><line style="stroke:#181818;stroke-width:0.5;" x1="95" x2="231" y1="163.1083" y2="163.1083"/></g><g id="elem_GMN3"><path d="M6,6 L6,46.6211 A0,0 0 0 0 6,46.6211 L159,46.6211 L163,106.14 L167,46.6211 L320,46.6211 A0,0 0 0 0 320,46.6211 L320,16 L310,6 L6,6 A0,0 0 0 0 6,6 " fill="#FEFFDD" style="stroke:#181818;stroke-width:0.5;"/><path d="M310,6 L310,16 L320,16 L310,6 " fill="#FEFFDD" style="stroke:#181818;stroke-width:0.5;"/><text fill="#000000" font-family="sans-serif" font-size="13" lengthAdjust="spacing" textLength="227" x="12" y="23.5684">Dette er i stedet for hent dokument.</text><text fill="#000000" font-family="sans-serif" font-size="13" lengthAdjust="spacing" textLength="293" x="12" y="38.8789">Hent kartutsnitt er resultatet av lag kartutsnitt</text></g><!--SRC=[PSin3W8n40F0FgzmZyG3hgO0yGMQYEmTuS8koZeqYB-pT2VXof8zrvRTSHJbENSEkbOIxuJ8piNlfdug4vozwf8-AQbHG7l2vZytuI2CMJfg42b2pDPnYn-AhUCHPO-B_Y3MZGpHnKTZPfZyGilBzf2-]--></g></svg>