<svg xmlns="http://www.w3.org/2000/svg" xmlns:xlink="http://www.w3.org/1999/xlink" contentStyleType="text/css" height="385px" preserveAspectRatio="none" style="width:217px;height:385px;background:#FFFFFF;" version="1.1" viewBox="0 0 217 385" width="217px" zoomAndPan="magnify"><defs/><g><!--class HentPosisjonResultat--><g id="elem_HentPosisjonResultat"><rect codeLine="2" fill="#F1F1F1" height="64.4883" id="HentPosisjonResultat" rx="2.5" ry="2.5" style="stroke:#181818;stroke-width:0.5;" width="176" x="20.5" y="7"/><ellipse cx="35.5" cy="23" fill="#ADD1B2" rx="11" ry="11" style="stroke:#181818;stroke-width:1.0;"/><path d="M37.9731,29.1431 Q37.3921,29.4419 36.7529,29.5913 Q36.1138,29.7407 35.4082,29.7407 Q32.9014,29.7407 31.5815,28.0889 Q30.2617,26.437 30.2617,23.3159 Q30.2617,20.1865 31.5815,18.5347 Q32.9014,16.8828 35.4082,16.8828 Q36.1138,16.8828 36.7612,17.0322 Q37.4087,17.1816 37.9731,17.4805 L37.9731,20.2031 Q37.3423,19.6221 36.7488,19.3523 Q36.1553,19.0825 35.5244,19.0825 Q34.1797,19.0825 33.4949,20.1492 Q32.8101,21.2158 32.8101,23.3159 Q32.8101,25.4077 33.4949,26.4744 Q34.1797,27.541 35.5244,27.541 Q36.1553,27.541 36.7488,27.2712 Q37.3423,27.0015 37.9731,26.4204 Z " fill="#000000"/><text fill="#000000" font-family="sans-serif" font-size="14" lengthAdjust="spacing" textLength="144" x="49.5" y="28.291">HentPosisjonResultat</text><line style="stroke:#181818;stroke-width:0.5;" x1="21.5" x2="195.5" y1="39" y2="39"/><ellipse cx="31.5" cy="52.7441" fill="none" rx="3" ry="3" style="stroke:#038048;stroke-width:1.0;"/><text fill="#000000" font-family="sans-serif" font-size="14" lengthAdjust="spacing" textLength="105" x="40.5" y="56.5352">punkt: Posisjon</text><line style="stroke:#181818;stroke-width:0.5;" x1="21.5" x2="195.5" y1="63.4883" y2="63.4883"/></g><!--class Posisjon--><g id="elem_Posisjon"><rect codeLine="8" fill="#F1F1F1" height="97.4648" id="Posisjon" rx="2.5" ry="2.5" style="stroke:#181818;stroke-width:0.5;" width="203" x="7" y="131.49"/><ellipse cx="75.75" cy="147.49" fill="#ADD1B2" rx="11" ry="11" style="stroke:#181818;stroke-width:1.0;"/><path d="M78.2231,153.6331 Q77.6421,153.9319 77.0029,154.0813 Q76.3638,154.2307 75.6582,154.2307 Q73.1514,154.2307 71.8315,152.5789 Q70.5117,150.927 70.5117,147.8059 Q70.5117,144.6765 71.8315,143.0247 Q73.1514,141.3728 75.6582,141.3728 Q76.3638,141.3728 77.0112,141.5222 Q77.6587,141.6716 78.2231,141.9705 L78.2231,144.6931 Q77.5923,144.1121 76.9988,143.8423 Q76.4053,143.5725 75.7744,143.5725 Q74.4297,143.5725 73.7449,144.6392 Q73.0601,145.7058 73.0601,147.8059 Q73.0601,149.8977 73.7449,150.9644 Q74.4297,152.031 75.7744,152.031 Q76.4053,152.031 76.9988,151.7612 Q77.5923,151.4915 78.2231,150.9104 Z " fill="#000000"/><text fill="#000000" font-family="sans-serif" font-size="14" lengthAdjust="spacing" textLength="57" x="96.25" y="152.781">Posisjon</text><line style="stroke:#181818;stroke-width:0.5;" x1="8" x2="209" y1="163.49" y2="163.49"/><ellipse cx="18" cy="177.2341" fill="none" rx="3" ry="3" style="stroke:#038048;stroke-width:1.0;"/><text fill="#000000" font-family="sans-serif" font-size="14" lengthAdjust="spacing" textLength="77" x="27" y="181.0252">type: string</text><ellipse cx="18" cy="193.7224" fill="none" rx="3" ry="3" style="stroke:#038048;stroke-width:1.0;"/><text fill="#000000" font-family="sans-serif" font-size="14" lengthAdjust="spacing" textLength="177" x="27" y="197.5134">koordinater: number[2-*]</text><ellipse cx="18" cy="210.2107" fill="none" rx="3" ry="3" style="stroke:#038048;stroke-width:1.0;"/><text fill="#000000" font-family="sans-serif" font-size="14" lengthAdjust="spacing" textLength="157" x="27" y="214.0017">koordinatsystem: Kode</text><line style="stroke:#181818;stroke-width:0.5;" x1="8" x2="209" y1="220.9548" y2="220.9548"/></g><!--class Koordinatsystem--><g id="elem_Koordinatsystem"><rect codeLine="16" fill="#F1F1F1" height="89.5977" id="Koordinatsystem" rx="2.5" ry="2.5" style="stroke:#181818;stroke-width:0.5;" width="184" x="16.5" y="288.95"/><ellipse cx="48.15" cy="309.2605" fill="#ADD1B2" rx="11" ry="11" style="stroke:#181818;stroke-width:1.0;"/><path d="M50.6231,315.4036 Q50.0421,315.7024 49.4029,315.8519 Q48.7638,316.0013 48.0582,316.0013 Q45.5514,316.0013 44.2315,314.3494 Q42.9117,312.6976 42.9117,309.5765 Q42.9117,306.4471 44.2315,304.7952 Q45.5514,303.1434 48.0582,303.1434 Q48.7638,303.1434 49.4112,303.2928 Q50.0587,303.4422 50.6231,303.741 L50.6231,306.4637 Q49.9923,305.8826 49.3988,305.6128 Q48.8053,305.3431 48.1744,305.3431 Q46.8297,305.3431 46.1449,306.4097 Q45.4601,307.4764 45.4601,309.5765 Q45.4601,311.6683 46.1449,312.7349 Q46.8297,313.8016 48.1744,313.8016 Q48.8053,313.8016 49.3988,313.5318 Q49.9923,313.262 50.6231,312.681 Z " fill="#000000"/><text fill="#000000" font-family="sans-serif" font-size="12" font-style="italic" lengthAdjust="spacing" textLength="42" x="102.35" y="305.5516">&#171;Kode&#187;</text><text fill="#000000" font-family="sans-serif" font-size="14" lengthAdjust="spacing" textLength="115" x="65.85" y="321.618">Koordinatsystem</text><line style="stroke:#181818;stroke-width:0.5;" x1="17.5" x2="199.5" y1="329.5711" y2="329.5711"/><ellipse cx="27.5" cy="343.3152" fill="none" rx="3" ry="3" style="stroke:#038048;stroke-width:1.0;"/><text fill="#000000" font-family="sans-serif" font-size="14" lengthAdjust="spacing" textLength="116" x="36.5" y="347.1063">kodeverdi: string</text><ellipse cx="27.5" cy="359.8035" fill="none" rx="3" ry="3" style="stroke:#038048;stroke-width:1.0;"/><text fill="#000000" font-family="sans-serif" font-size="14" lengthAdjust="spacing" textLength="158" x="36.5" y="363.5945">kodebeskrivelse: string</text><line style="stroke:#181818;stroke-width:0.5;" x1="17.5" x2="199.5" y1="370.5477" y2="370.5477"/></g><!--link HentPosisjonResultat to Posisjon--><g id="link_HentPosisjonResultat_Posisjon"><path codeLine="6" d="M108.5,71.78 C108.5,89.32 108.5,111.51 108.5,131.17 " fill="none" id="HentPosisjonResultat-Posisjon" style="stroke:#181818;stroke-width:1.0;"/></g><!--link Posisjon to Koordinatsystem--><g id="link_Posisjon_Koordinatsystem"><path codeLine="14" d="M108.5,229.17 C108.5,248.15 108.5,269.85 108.5,288.46 " fill="none" id="Posisjon-Koordinatsystem" style="stroke:#181818;stroke-width:1.0;"/></g><!--SRC=[RKuz2y8m4DtpAsvMkZY6qbde8gxYq8z3OjAav2w5KlhVJPLO3DxsFkwzrvc62Cve-U98qTFPAr8mt30i0k8Tns0rIqYoM8NuQo-AtIEwTsp2AOhd4IKGUsKV7qOxvtjb6qOlmOQXHNyx5OTxfj9CZ8E4slMu3VW6nzBwrvIwCxeijz-gIbDqH1D6HxwdnnP9UpMXeNtiAbu0]--></g></svg>