<svg xmlns="http://www.w3.org/2000/svg" xmlns:xlink="http://www.w3.org/1999/xlink" contentStyleType="text/css" height="85px" preserveAspectRatio="none" style="width:159px;height:85px;background:#FFFFFF;" version="1.1" viewBox="0 0 159 85" width="159px" zoomAndPan="magnify"><defs/><g><!--class HentOmraade--><g id="elem_HentOmraade"><rect codeLine="2" fill="#F1F1F1" height="64.4883" id="HentOmraade" rx="2.5" ry="2.5" style="stroke:#181818;stroke-width:0.5;" width="138" x="7" y="7"/><ellipse cx="26.95" cy="23" fill="#ADD1B2" rx="11" ry="11" style="stroke:#181818;stroke-width:1.0;"/><path d="M29.4231,29.1431 Q28.8421,29.4419 28.2029,29.5913 Q27.5638,29.7407 26.8582,29.7407 Q24.3514,29.7407 23.0315,28.0889 Q21.7117,26.437 21.7117,23.3159 Q21.7117,20.1865 23.0315,18.5347 Q24.3514,16.8828 26.8582,16.8828 Q27.5638,16.8828 28.2112,17.0322 Q28.8587,17.1816 29.4231,17.4805 L29.4231,20.2031 Q28.7923,19.6221 28.1988,19.3523 Q27.6053,19.0825 26.9744,19.0825 Q25.6297,19.0825 24.9449,20.1492 Q24.2601,21.2158 24.2601,23.3159 Q24.2601,25.4077 24.9449,26.4744 Q25.6297,27.541 26.9744,27.541 Q27.6053,27.541 28.1988,27.2712 Q28.7923,27.0015 29.4231,26.4204 Z " fill="#000000"/><text fill="#000000" font-family="sans-serif" font-size="14" lengthAdjust="spacing" textLength="95" x="42.05" y="28.291">HentOmraade</text><line style="stroke:#181818;stroke-width:0.5;" x1="8" x2="144" y1="39" y2="39"/><ellipse cx="18" cy="52.7441" fill="none" rx="3" ry="3" style="stroke:#038048;stroke-width:1.0;"/><text fill="#000000" font-family="sans-serif" font-size="14" lengthAdjust="spacing" textLength="112" x="27" y="56.5352">sesjonsId: string</text><line style="stroke:#181818;stroke-width:0.5;" x1="8" x2="144" y1="63.4883" y2="63.4883"/></g><!--SRC=[Iyv9B2vMy4ZDA_7FBKfCJ4bLgEPI00BjujJYhFoyOiyKAuNYagBCl7IkMYu0]--></g></svg>