<svg xmlns="http://www.w3.org/2000/svg" xmlns:xlink="http://www.w3.org/1999/xlink" contentStyleType="text/css" height="85px" preserveAspectRatio="none" style="width:159px;height:85px;background:#FFFFFF;" version="1.1" viewBox="0 0 159 85" width="159px" zoomAndPan="magnify"><defs/><g><!--class HentPosisjon--><g id="elem_HentPosisjon"><rect codeLine="2" fill="#F1F1F1" height="64.4883" id="HentPosisjon" rx="2.5" ry="2.5" style="stroke:#181818;stroke-width:0.5;" width="138" x="7" y="7"/><ellipse cx="29.65" cy="23" fill="#ADD1B2" rx="11" ry="11" style="stroke:#181818;stroke-width:1.0;"/><path d="M32.1231,29.1431 Q31.5421,29.4419 30.9029,29.5913 Q30.2638,29.7407 29.5582,29.7407 Q27.0514,29.7407 25.7315,28.0889 Q24.4117,26.437 24.4117,23.3159 Q24.4117,20.1865 25.7315,18.5347 Q27.0514,16.8828 29.5582,16.8828 Q30.2638,16.8828 30.9112,17.0322 Q31.5587,17.1816 32.1231,17.4805 L32.1231,20.2031 Q31.4923,19.6221 30.8988,19.3523 Q30.3053,19.0825 29.6744,19.0825 Q28.3297,19.0825 27.6449,20.1492 Q26.9601,21.2158 26.9601,23.3159 Q26.9601,25.4077 27.6449,26.4744 Q28.3297,27.541 29.6744,27.541 Q30.3053,27.541 30.8988,27.2712 Q31.4923,27.0015 32.1231,26.4204 Z " fill="#000000"/><text fill="#000000" font-family="sans-serif" font-size="14" lengthAdjust="spacing" textLength="89" x="45.35" y="28.291">HentPosisjon</text><line style="stroke:#181818;stroke-width:0.5;" x1="8" x2="144" y1="39" y2="39"/><ellipse cx="18" cy="52.7441" fill="none" rx="3" ry="3" style="stroke:#038048;stroke-width:1.0;"/><text fill="#000000" font-family="sans-serif" font-size="14" lengthAdjust="spacing" textLength="112" x="27" y="56.5352">sesjonsId: string</text><line style="stroke:#181818;stroke-width:0.5;" x1="8" x2="144" y1="63.4883" y2="63.4883"/></g><!--SRC=[Iyv9B2vMy4ZDAmd8ByuipihFKwZcKW02xU9K4A_OCyLAeRYaA3CldQkM2m00]--></g></svg>