<svg xmlns="http://www.w3.org/2000/svg" xmlns:xlink="http://www.w3.org/1999/xlink" contentStyleType="text/css" height="898px" preserveAspectRatio="none" style="width:965px;height:898px;background:#FFFFFF;" version="1.1" viewBox="0 0 965 898" width="965px" zoomAndPan="magnify"><defs/><g><!--class HentNabolisteResultat--><g id="elem_HentNabolisteResultat"><rect codeLine="1" fill="#F1F1F1" height="64.4883" id="HentNabolisteResultat" rx="2.5" ry="2.5" style="stroke:#181818;stroke-width:0.5;" width="212" x="7" y="7"/><ellipse cx="35.05" cy="23" fill="#ADD1B2" rx="11" ry="11" style="stroke:#181818;stroke-width:1.0;"/><path d="M37.5231,29.1431 Q36.9421,29.4419 36.3029,29.5913 Q35.6638,29.7407 34.9582,29.7407 Q32.4514,29.7407 31.1315,28.0889 Q29.8117,26.437 29.8117,23.3159 Q29.8117,20.1865 31.1315,18.5347 Q32.4514,16.8828 34.9582,16.8828 Q35.6638,16.8828 36.3112,17.0322 Q36.9587,17.1816 37.5231,17.4805 L37.5231,20.2031 Q36.8923,19.6221 36.2988,19.3523 Q35.7053,19.0825 35.0744,19.0825 Q33.7297,19.0825 33.0449,20.1492 Q32.3601,21.2158 32.3601,23.3159 Q32.3601,25.4077 33.0449,26.4744 Q33.7297,27.541 35.0744,27.541 Q35.7053,27.541 36.2988,27.2712 Q36.8923,27.0015 37.5231,26.4204 Z " fill="#000000"/><text fill="#000000" font-family="sans-serif" font-size="14" lengthAdjust="spacing" textLength="151" x="51.95" y="28.291">HentNabolisteResultat</text><line style="stroke:#181818;stroke-width:0.5;" x1="8" x2="218" y1="39" y2="39"/><text fill="#000000" font-family="sans-serif" font-size="14" lengthAdjust="spacing" textLength="200" x="13" y="56.5352">naboeiendommer: Eiendom[]</text><line style="stroke:#181818;stroke-width:0.5;" x1="8" x2="218" y1="63.4883" y2="63.4883"/></g><!--class Eiendom--><g id="elem_Eiendom"><rect codeLine="7" fill="#F1F1F1" height="97.4648" id="Eiendom" rx="2.5" ry="2.5" style="stroke:#181818;stroke-width:0.5;" width="277" x="100.5" y="131.49"/><ellipse cx="204.75" cy="147.49" fill="#ADD1B2" rx="11" ry="11" style="stroke:#181818;stroke-width:1.0;"/><path d="M207.2231,153.6331 Q206.6421,153.9319 206.0029,154.0813 Q205.3638,154.2307 204.6582,154.2307 Q202.1514,154.2307 200.8315,152.5789 Q199.5117,150.927 199.5117,147.8059 Q199.5117,144.6765 200.8315,143.0247 Q202.1514,141.3728 204.6582,141.3728 Q205.3638,141.3728 206.0112,141.5222 Q206.6587,141.6716 207.2231,141.9705 L207.2231,144.6931 Q206.5923,144.1121 205.9988,143.8423 Q205.4053,143.5725 204.7744,143.5725 Q203.4297,143.5725 202.7449,144.6392 Q202.0601,145.7058 202.0601,147.8059 Q202.0601,149.8977 202.7449,150.9644 Q203.4297,152.031 204.7744,152.031 Q205.4053,152.031 205.9988,151.7612 Q206.5923,151.4915 207.2231,150.9104 Z " fill="#000000"/><text fill="#000000" font-family="sans-serif" font-size="14" lengthAdjust="spacing" textLength="60" x="225.25" y="152.781">Eiendom</text><line style="stroke:#181818;stroke-width:0.5;" x1="101.5" x2="376.5" y1="163.49" y2="163.49"/><ellipse cx="111.5" cy="177.2341" fill="#000000" rx="3" ry="3" style="stroke:#000000;stroke-width:1.0;"/><text fill="#000000" font-family="sans-serif" font-size="14" lengthAdjust="spacing" textLength="251" x="120.5" y="181.0252">matrikkelnummer: Matrikkelnummer</text><text fill="#000000" font-family="sans-serif" font-size="14" lengthAdjust="spacing" textLength="78" x="120.5" y="197.5134">eiere: Eier[]</text><text fill="#000000" font-family="sans-serif" font-size="14" lengthAdjust="spacing" textLength="192" x="120.5" y="214.0017">eiendomadresser: Adresse[]</text><line style="stroke:#181818;stroke-width:0.5;" x1="101.5" x2="376.5" y1="220.9548" y2="220.9548"/></g><g id="elem_GMN5"><path d="M254,26.59 L254,51.9005 A0,0 0 0 0 254,51.9005 L351.17,51.9005 L282.93,131.15 L359.17,51.9005 L478,51.9005 A0,0 0 0 0 478,51.9005 L478,36.59 L468,26.59 L254,26.59 A0,0 0 0 0 254,26.59 " fill="#FEFFDD" style="stroke:#181818;stroke-width:0.5;"/><path d="M468,26.59 L468,36.59 L478,36.59 L468,26.59 " fill="#FEFFDD" style="stroke:#181818;stroke-width:0.5;"/><text fill="#000000" font-family="sans-serif" font-size="13" lengthAdjust="spacing" textLength="203" x="260" y="44.1584">Kan vi kutte ut &#229; returnere eiere?</text></g><!--class Matrikkelnummer--><g id="elem_Matrikkelnummer"><rect codeLine="17" fill="#F1F1F1" height="130.4414" id="Matrikkelnummer" rx="2.5" ry="2.5" style="stroke:#181818;stroke-width:0.5;" width="201" x="72.5" y="603.88"/><ellipse cx="109.1" cy="619.88" fill="#ADD1B2" rx="11" ry="11" style="stroke:#181818;stroke-width:1.0;"/><path d="M111.5731,626.0231 Q110.9921,626.3219 110.3529,626.4713 Q109.7138,626.6207 109.0082,626.6207 Q106.5014,626.6207 105.1815,624.9689 Q103.8617,623.317 103.8617,620.1959 Q103.8617,617.0665 105.1815,615.4147 Q106.5014,613.7628 109.0082,613.7628 Q109.7138,613.7628 110.3612,613.9122 Q111.0087,614.0616 111.5731,614.3605 L111.5731,617.0831 Q110.9423,616.5021 110.3488,616.2323 Q109.7553,615.9625 109.1244,615.9625 Q107.7797,615.9625 107.0949,617.0292 Q106.4101,618.0958 106.4101,620.1959 Q106.4101,622.2877 107.0949,623.3544 Q107.7797,624.421 109.1244,624.421 Q109.7553,624.421 110.3488,624.1512 Q110.9423,623.8815 111.5731,623.3004 Z " fill="#000000"/><text fill="#000000" font-family="sans-serif" font-size="14" lengthAdjust="spacing" textLength="121" x="127.9" y="625.171">Matrikkelnummer</text><line style="stroke:#181818;stroke-width:0.5;" x1="73.5" x2="272.5" y1="635.88" y2="635.88"/><ellipse cx="83.5" cy="649.6241" fill="#000000" rx="3" ry="3" style="stroke:#000000;stroke-width:1.0;"/><text fill="#000000" font-family="sans-serif" font-size="14" lengthAdjust="spacing" textLength="175" x="92.5" y="653.4152">kommunenummer: string</text><ellipse cx="83.5" cy="666.1124" fill="#000000" rx="3" ry="3" style="stroke:#000000;stroke-width:1.0;"/><text fill="#000000" font-family="sans-serif" font-size="14" lengthAdjust="spacing" textLength="162" x="92.5" y="669.9034">gaardsnummer: integer</text><ellipse cx="83.5" cy="682.6007" fill="#000000" rx="3" ry="3" style="stroke:#000000;stroke-width:1.0;"/><text fill="#000000" font-family="sans-serif" font-size="14" lengthAdjust="spacing" textLength="154" x="92.5" y="686.3917">bruksnummer: integer</text><text fill="#000000" font-family="sans-serif" font-size="14" lengthAdjust="spacing" textLength="148" x="92.5" y="702.88">festenummer: integer</text><text fill="#000000" font-family="sans-serif" font-size="14" lengthAdjust="spacing" textLength="174" x="92.5" y="719.3683">seksjonsnummer: integer</text><line style="stroke:#181818;stroke-width:0.5;" x1="73.5" x2="272.5" y1="726.3214" y2="726.3214"/></g><!--class Adresse--><g id="elem_Adresse"><rect codeLine="29" fill="#F1F1F1" height="130.4414" id="Adresse" rx="2.5" ry="2.5" style="stroke:#181818;stroke-width:0.5;" width="235" x="130.5" y="288.95"/><ellipse cx="216.25" cy="304.95" fill="#ADD1B2" rx="11" ry="11" style="stroke:#181818;stroke-width:1.0;"/><path d="M218.7231,311.0931 Q218.1421,311.3919 217.5029,311.5413 Q216.8638,311.6907 216.1582,311.6907 Q213.6514,311.6907 212.3315,310.0389 Q211.0117,308.387 211.0117,305.2659 Q211.0117,302.1365 212.3315,300.4847 Q213.6514,298.8328 216.1582,298.8328 Q216.8638,298.8328 217.5112,298.9822 Q218.1587,299.1316 218.7231,299.4305 L218.7231,302.1531 Q218.0923,301.5721 217.4988,301.3023 Q216.9053,301.0325 216.2744,301.0325 Q214.9297,301.0325 214.2449,302.0992 Q213.5601,303.1658 213.5601,305.2659 Q213.5601,307.3577 214.2449,308.4244 Q214.9297,309.491 216.2744,309.491 Q216.9053,309.491 217.4988,309.2212 Q218.0923,308.9515 218.7231,308.3704 Z " fill="#000000"/><text fill="#000000" font-family="sans-serif" font-size="14" lengthAdjust="spacing" textLength="55" x="236.75" y="310.241">Adresse</text><line style="stroke:#181818;stroke-width:0.5;" x1="131.5" x2="364.5" y1="320.95" y2="320.95"/><text fill="#000000" font-family="sans-serif" font-size="14" lengthAdjust="spacing" textLength="223" x="136.5" y="338.4852">adressetype: Adressetype&#171;Kode&#187;</text><text fill="#000000" font-family="sans-serif" font-size="14" lengthAdjust="spacing" textLength="139" x="136.5" y="354.9734">adresselinje1: string</text><text fill="#000000" font-family="sans-serif" font-size="14" lengthAdjust="spacing" textLength="139" x="136.5" y="371.4617">adresselinje2: string</text><text fill="#000000" font-family="sans-serif" font-size="14" lengthAdjust="spacing" textLength="222" x="136.5" y="387.95">postadresse: Postadresse&#171;Kode&#187;</text><text fill="#000000" font-family="sans-serif" font-size="14" lengthAdjust="spacing" textLength="188" x="136.5" y="404.4383">landkode: Landkode&#171;Kode&#187;</text><line style="stroke:#181818;stroke-width:0.5;" x1="131.5" x2="364.5" y1="411.3914" y2="411.3914"/></g><!--class Eier--><g id="elem_Eier"><rect codeLine="37" fill="#F1F1F1" height="80.9766" id="Eier" rx="2.5" ry="2.5" style="stroke:#181818;stroke-width:0.5;" width="237" x="400.5" y="313.69"/><ellipse cx="501.75" cy="329.69" fill="#ADD1B2" rx="11" ry="11" style="stroke:#181818;stroke-width:1.0;"/><path d="M504.2231,335.8331 Q503.6421,336.1319 503.0029,336.2813 Q502.3638,336.4307 501.6582,336.4307 Q499.1514,336.4307 497.8315,334.7789 Q496.5117,333.127 496.5117,330.0059 Q496.5117,326.8765 497.8315,325.2247 Q499.1514,323.5728 501.6582,323.5728 Q502.3638,323.5728 503.0112,323.7222 Q503.6587,323.8716 504.2231,324.1705 L504.2231,326.8931 Q503.5923,326.3121 502.9988,326.0423 Q502.4053,325.7725 501.7744,325.7725 Q500.4297,325.7725 499.7449,326.8392 Q499.0601,327.9058 499.0601,330.0059 Q499.0601,332.0977 499.7449,333.1644 Q500.4297,334.231 501.7744,334.231 Q502.4053,334.231 502.9988,333.9612 Q503.5923,333.6915 504.2231,333.1104 Z " fill="#000000"/><text fill="#000000" font-family="sans-serif" font-size="14" lengthAdjust="spacing" textLength="26" x="522.25" y="334.981">Eier</text><line style="stroke:#181818;stroke-width:0.5;" x1="401.5" x2="636.5" y1="345.69" y2="345.69"/><ellipse cx="411.5" cy="359.4341" fill="#000000" rx="3" ry="3" style="stroke:#000000;stroke-width:1.0;"/><text fill="#000000" font-family="sans-serif" font-size="14" lengthAdjust="spacing" textLength="211" x="420.5" y="363.2252">eierforhold: Eierforhold&#171;Kode&#187;</text><ellipse cx="411.5" cy="375.9224" fill="#000000" rx="3" ry="3" style="stroke:#000000;stroke-width:1.0;"/><text fill="#000000" font-family="sans-serif" font-size="14" lengthAdjust="spacing" textLength="135" x="420.5" y="379.7134">andel: Andel&#171;Kode&#187;</text><line style="stroke:#181818;stroke-width:0.5;" x1="401.5" x2="636.5" y1="386.6666" y2="386.6666"/></g><g id="elem_GMN14"><path d="M412.5,167.57 L412.5,192.8805 A0,0 0 0 0 412.5,192.8805 L523.37,192.8805 L521.09,313.28 L531.37,192.8805 L643.5,192.8805 A0,0 0 0 0 643.5,192.8805 L643.5,177.57 L633.5,167.57 L412.5,167.57 A0,0 0 0 0 412.5,167.57 " fill="#FEFFDD" style="stroke:#181818;stroke-width:0.5;"/><path d="M633.5,167.57 L633.5,177.57 L643.5,177.57 L633.5,167.57 " fill="#FEFFDD" style="stroke:#181818;stroke-width:0.5;"/><text fill="#000000" font-family="sans-serif" font-size="13" lengthAdjust="spacing" textLength="210" x="418.5" y="185.1384">Eierforhold kommer fra matrikkel</text></g><!--class KontaktEier--><g id="elem_KontaktEier"><rect codeLine="47" fill="#F1F1F1" height="64.4883" id="KontaktEier" rx="2.5" ry="2.5" style="stroke:#181818;stroke-width:0.5;" width="139" x="449.5" y="479.4"/><ellipse cx="477.1" cy="495.4" fill="#ADD1B2" rx="11" ry="11" style="stroke:#181818;stroke-width:1.0;"/><path d="M479.5731,501.5431 Q478.9921,501.8419 478.3529,501.9913 Q477.7138,502.1407 477.0082,502.1407 Q474.5014,502.1407 473.1815,500.4889 Q471.8617,498.837 471.8617,495.7159 Q471.8617,492.5865 473.1815,490.9347 Q474.5014,489.2828 477.0082,489.2828 Q477.7138,489.2828 478.3612,489.4322 Q479.0087,489.5816 479.5731,489.8805 L479.5731,492.6031 Q478.9423,492.0221 478.3488,491.7523 Q477.7553,491.4825 477.1244,491.4825 Q475.7797,491.4825 475.0949,492.5492 Q474.4101,493.6158 474.4101,495.7159 Q474.4101,497.8077 475.0949,498.8744 Q475.7797,499.941 477.1244,499.941 Q477.7553,499.941 478.3488,499.6712 Q478.9423,499.4015 479.5731,498.8204 Z " fill="#000000"/><text fill="#000000" font-family="sans-serif" font-size="14" lengthAdjust="spacing" textLength="79" x="493.9" y="500.691">KontaktEier</text><line style="stroke:#181818;stroke-width:0.5;" x1="450.5" x2="587.5" y1="511.4" y2="511.4"/><ellipse cx="460.5" cy="525.1441" fill="#000000" rx="3" ry="3" style="stroke:#000000;stroke-width:1.0;"/><text fill="#000000" font-family="sans-serif" font-size="14" lengthAdjust="spacing" textLength="113" x="469.5" y="528.9352">kontakt: Kontakt</text><line style="stroke:#181818;stroke-width:0.5;" x1="450.5" x2="587.5" y1="535.8883" y2="535.8883"/></g><!--class MatrikkelEier--><g id="elem_MatrikkelEier"><rect codeLine="53" fill="#F1F1F1" height="64.4883" id="MatrikkelEier" rx="2.5" ry="2.5" style="stroke:#181818;stroke-width:0.5;" width="277" x="133.5" y="479.4"/><ellipse cx="223.25" cy="495.4" fill="#ADD1B2" rx="11" ry="11" style="stroke:#181818;stroke-width:1.0;"/><path d="M225.7231,501.5431 Q225.1421,501.8419 224.5029,501.9913 Q223.8638,502.1407 223.1582,502.1407 Q220.6514,502.1407 219.3315,500.4889 Q218.0117,498.837 218.0117,495.7159 Q218.0117,492.5865 219.3315,490.9347 Q220.6514,489.2828 223.1582,489.2828 Q223.8638,489.2828 224.5112,489.4322 Q225.1587,489.5816 225.7231,489.8805 L225.7231,492.6031 Q225.0923,492.0221 224.4988,491.7523 Q223.9053,491.4825 223.2744,491.4825 Q221.9297,491.4825 221.2449,492.5492 Q220.5601,493.6158 220.5601,495.7159 Q220.5601,497.8077 221.2449,498.8744 Q221.9297,499.941 223.2744,499.941 Q223.9053,499.941 224.4988,499.6712 Q225.0923,499.4015 225.7231,498.8204 Z " fill="#000000"/><text fill="#000000" font-family="sans-serif" font-size="14" lengthAdjust="spacing" textLength="89" x="243.75" y="500.691">MatrikkelEier</text><line style="stroke:#181818;stroke-width:0.5;" x1="134.5" x2="409.5" y1="511.4" y2="511.4"/><ellipse cx="144.5" cy="525.1441" fill="#000000" rx="3" ry="3" style="stroke:#000000;stroke-width:1.0;"/><text fill="#000000" font-family="sans-serif" font-size="14" lengthAdjust="spacing" textLength="251" x="153.5" y="528.9352">matrikkelnummer: Matrikkelnummer</text><line style="stroke:#181818;stroke-width:0.5;" x1="134.5" x2="409.5" y1="535.8883" y2="535.8883"/></g><!--class Kontakt--><g id="elem_Kontakt"><rect codeLine="59" fill="#F1F1F1" height="64.4883" id="Kontakt" rx="2.5" ry="2.5" style="stroke:#181818;stroke-width:0.5;" width="107" x="601.5" y="636.86"/><ellipse cx="626.4" cy="652.86" fill="#ADD1B2" rx="11" ry="11" style="stroke:#181818;stroke-width:1.0;"/><path d="M628.8731,659.0031 Q628.2921,659.3019 627.6529,659.4513 Q627.0138,659.6007 626.3082,659.6007 Q623.8014,659.6007 622.4815,657.9489 Q621.1617,656.297 621.1617,653.1759 Q621.1617,650.0465 622.4815,648.3947 Q623.8014,646.7428 626.3082,646.7428 Q627.0138,646.7428 627.6612,646.8922 Q628.3087,647.0416 628.8731,647.3405 L628.8731,650.0631 Q628.2423,649.4821 627.6488,649.2123 Q627.0553,648.9425 626.4244,648.9425 Q625.0797,648.9425 624.3949,650.0092 Q623.7101,651.0758 623.7101,653.1759 Q623.7101,655.2677 624.3949,656.3344 Q625.0797,657.401 626.4244,657.401 Q627.0553,657.401 627.6488,657.1312 Q628.2423,656.8615 628.8731,656.2804 Z " fill="#000000"/><text fill="#000000" font-family="sans-serif" font-size="14" lengthAdjust="spacing" textLength="53" x="642.6" y="658.151">Kontakt</text><line style="stroke:#181818;stroke-width:0.5;" x1="602.5" x2="707.5" y1="668.86" y2="668.86"/><ellipse cx="612.5" cy="682.6041" fill="#000000" rx="3" ry="3" style="stroke:#000000;stroke-width:1.0;"/><text fill="#000000" font-family="sans-serif" font-size="14" lengthAdjust="spacing" textLength="81" x="621.5" y="686.3952">navn: string</text><line style="stroke:#181818;stroke-width:0.5;" x1="602.5" x2="707.5" y1="693.3483" y2="693.3483"/></g><g id="elem_GMN24"><path d="M623.5,498.98 L623.5,524.2905 A0,0 0 0 0 623.5,524.2905 L776.55,524.2905 L682.71,636.42 L784.55,524.2905 L958.5,524.2905 A0,0 0 0 0 958.5,524.2905 L958.5,508.98 L948.5,498.98 L623.5,498.98 A0,0 0 0 0 623.5,498.98 " fill="#FEFFDD" style="stroke:#181818;stroke-width:0.5;"/><path d="M948.5,498.98 L948.5,508.98 L958.5,508.98 L948.5,498.98 " fill="#FEFFDD" style="stroke:#181818;stroke-width:0.5;"/><text fill="#000000" font-family="sans-serif" font-size="13" lengthAdjust="spacing" textLength="314" x="629.5" y="516.5484">Denne b&#248;r v&#230;re lik som datamodellen i Fiks Arkiv</text></g><!--class KontaktPerson--><g id="elem_KontaktPerson"><rect codeLine="76" fill="#F1F1F1" height="97.4648" id="KontaktPerson" rx="2.5" ry="2.5" style="stroke:#181818;stroke-width:0.5;" width="139" x="475.5" y="794.33"/><ellipse cx="493.65" cy="810.33" fill="#ADD1B2" rx="11" ry="11" style="stroke:#181818;stroke-width:1.0;"/><path d="M496.1231,816.4731 Q495.5421,816.7719 494.9029,816.9213 Q494.2638,817.0707 493.5582,817.0707 Q491.0514,817.0707 489.7315,815.4189 Q488.4117,813.767 488.4117,810.6459 Q488.4117,807.5165 489.7315,805.8647 Q491.0514,804.2128 493.5582,804.2128 Q494.2638,804.2128 494.9112,804.3622 Q495.5587,804.5116 496.1231,804.8105 L496.1231,807.5331 Q495.4923,806.9521 494.8988,806.6823 Q494.3053,806.4125 493.6744,806.4125 Q492.3297,806.4125 491.6449,807.4792 Q490.9601,808.5458 490.9601,810.6459 Q490.9601,812.7377 491.6449,813.8044 Q492.3297,814.871 493.6744,814.871 Q494.3053,814.871 494.8988,814.6012 Q495.4923,814.3315 496.1231,813.7504 Z " fill="#000000"/><text fill="#000000" font-family="sans-serif" font-size="14" lengthAdjust="spacing" textLength="100" x="508.35" y="815.621">KontaktPerson</text><line style="stroke:#181818;stroke-width:0.5;" x1="476.5" x2="613.5" y1="826.33" y2="826.33"/><ellipse cx="486.5" cy="840.0741" fill="#000000" rx="3" ry="3" style="stroke:#000000;stroke-width:1.0;"/><text fill="#000000" font-family="sans-serif" font-size="14" lengthAdjust="spacing" textLength="109" x="495.5" y="843.8652">personid: string</text><ellipse cx="486.5" cy="856.5624" fill="#000000" rx="3" ry="3" style="stroke:#000000;stroke-width:1.0;"/><text fill="#000000" font-family="sans-serif" font-size="14" lengthAdjust="spacing" textLength="113" x="495.5" y="860.3534">etternavn: string</text><ellipse cx="486.5" cy="873.0507" fill="#000000" rx="3" ry="3" style="stroke:#000000;stroke-width:1.0;"/><text fill="#000000" font-family="sans-serif" font-size="14" lengthAdjust="spacing" textLength="101" x="495.5" y="876.8417">fornavn: string</text><line style="stroke:#181818;stroke-width:0.5;" x1="476.5" x2="613.5" y1="883.7948" y2="883.7948"/></g><!--class KontaktOrganisasjon--><g id="elem_KontaktOrganisasjon"><rect codeLine="77" fill="#F1F1F1" height="64.4883" id="KontaktOrganisasjon" rx="2.5" ry="2.5" style="stroke:#181818;stroke-width:0.5;" width="228" x="650" y="810.81"/><ellipse cx="688.4" cy="826.81" fill="#ADD1B2" rx="11" ry="11" style="stroke:#181818;stroke-width:1.0;"/><path d="M690.8731,832.9531 Q690.2921,833.2519 689.6529,833.4013 Q689.0138,833.5507 688.3082,833.5507 Q685.8014,833.5507 684.4815,831.8989 Q683.1617,830.247 683.1617,827.1259 Q683.1617,823.9965 684.4815,822.3447 Q685.8014,820.6928 688.3082,820.6928 Q689.0138,820.6928 689.6612,820.8422 Q690.3087,820.9916 690.8731,821.2905 L690.8731,824.0131 Q690.2423,823.4321 689.6488,823.1623 Q689.0553,822.8925 688.4244,822.8925 Q687.0797,822.8925 686.3949,823.9592 Q685.7101,825.0258 685.7101,827.1259 Q685.7101,829.2177 686.3949,830.2844 Q687.0797,831.351 688.4244,831.351 Q689.0553,831.351 689.6488,831.0812 Q690.2423,830.8115 690.8731,830.2304 Z " fill="#000000"/><text fill="#000000" font-family="sans-serif" font-size="14" lengthAdjust="spacing" textLength="144" x="707.6" y="832.101">KontaktOrganisasjon</text><line style="stroke:#181818;stroke-width:0.5;" x1="651" x2="877" y1="842.81" y2="842.81"/><ellipse cx="661" cy="856.5541" fill="#000000" rx="3" ry="3" style="stroke:#000000;stroke-width:1.0;"/><text fill="#000000" font-family="sans-serif" font-size="14" lengthAdjust="spacing" textLength="202" x="670" y="860.3452">organisasjonsnummer: string</text><line style="stroke:#181818;stroke-width:0.5;" x1="651" x2="877" y1="867.2983" y2="867.2983"/></g><!--link HentNabolisteResultat to Eiendom--><g id="link_HentNabolisteResultat_Eiendom"><path codeLine="5" d="M141.59,71.78 C157.49,89.32 177.61,111.51 195.43,131.17 " fill="none" id="HentNabolisteResultat-Eiendom" style="stroke:#181818;stroke-width:1.0;stroke-dasharray:7.0,7.0;"/></g><!--link Eiendom to Matrikkelnummer--><g id="link_Eiendom_Matrikkelnummer"><path codeLine="15" d="M161.78,229.24 C142.21,245.58 123.72,265.69 113,288.95 C65.59,391.87 90.48,433.48 116,543.88 C120.65,564 128.72,584.79 137.35,603.47 " fill="none" id="Eiendom-Matrikkelnummer" style="stroke:#181818;stroke-width:1.0;stroke-dasharray:7.0,7.0;"/></g><!--reverse link Eiendom to Adresse--><g id="link_Eiendom_Adresse"><path codeLine="26" d="M242.1359,241.1037 C243.0959,259.4837 243.58,268.8 244.62,288.5 " fill="none" id="Eiendom-backto-Adresse" style="stroke:#181818;stroke-width:1.0;stroke-dasharray:7.0,7.0;"/><polygon fill="#181818" points="241.51,229.12,237.8284,235.3205,242.1359,241.1037,245.8175,234.9032,241.51,229.12" style="stroke:#181818;stroke-width:1.0;"/></g><!--reverse link Eiendom to Eier--><g id="link_Eiendom_Eier"><path codeLine="27" d="M327.5952,235.6305 C370.6252,262.0605 413.14,288.17 453.89,313.19 " fill="none" id="Eiendom-backto-Eier" style="stroke:#181818;stroke-width:1.0;stroke-dasharray:7.0,7.0;"/><polygon fill="#181818" points="317.37,229.35,320.3891,235.8987,327.5952,235.6305,324.5761,229.0819,317.37,229.35" style="stroke:#181818;stroke-width:1.0;"/></g><!--reverse link Eier to KontaktEier--><g id="link_Eier_KontaktEier"><path d="M519,412.81 C519,438.9 519,454.59 519,478.91 " fill="none" id="Eier-backto-KontaktEier" style="stroke:#181818;stroke-width:1.0;"/><polygon fill="none" points="519,394.81,513,412.81,525,412.81,519,394.81" style="stroke:#181818;stroke-width:1.0;"/></g><!--reverse link Eier to MatrikkelEier--><g id="link_Eier_MatrikkelEier"><path d="M440.4765,404.5985 C399.0265,430.6885 360.83,454.73 322.29,478.99 " fill="none" id="Eier-backto-MatrikkelEier" style="stroke:#181818;stroke-width:1.0;"/><polygon fill="none" points="455.71,395.01,437.2803,399.5206,443.6726,409.6763,455.71,395.01" style="stroke:#181818;stroke-width:1.0;"/></g><!--link KontaktEier to Kontakt--><g id="link_KontaktEier_Kontakt"><path codeLine="51" d="M546.52,544.1 C570.04,570.98 603.71,609.48 627.29,636.42 " fill="none" id="KontaktEier-Kontakt" style="stroke:#181818;stroke-width:1.0;stroke-dasharray:7.0,7.0;"/></g><!--link MatrikkelEier to Matrikkelnummer--><g id="link_MatrikkelEier_Matrikkelnummer"><path codeLine="57" d="M251.97,544.1 C241.06,561.22 227.16,583.06 214.06,603.62 " fill="none" id="MatrikkelEier-Matrikkelnummer" style="stroke:#181818;stroke-width:1.0;stroke-dasharray:7.0,7.0;"/></g><!--reverse link Kontakt to KontaktPerson--><g id="link_Kontakt_KontaktPerson"><path d="M625.121,716.8034 C608.561,742.6934 594.55,764.6 575.64,794.16 " fill="none" id="Kontakt-backto-KontaktPerson" style="stroke:#181818;stroke-width:1.0;"/><polygon fill="none" points="634.82,701.64,620.0665,713.5704,630.1755,720.0364,634.82,701.64" style="stroke:#181818;stroke-width:1.0;"/></g><!--reverse link Kontakt to KontaktOrganisasjon--><g id="link_Kontakt_KontaktOrganisasjon"><path d="M684.6283,716.8421 C704.2383,747.7721 724.32,779.47 743.95,810.43 " fill="none" id="Kontakt-backto-KontaktOrganisasjon" style="stroke:#181818;stroke-width:1.0;"/><polygon fill="none" points="674.99,701.64,679.5609,720.0548,689.6957,713.6293,674.99,701.64" style="stroke:#181818;stroke-width:1.0;"/></g><!--SRC=[XLDBRjim4Dth5BFs8a2w588K1TgYWDiawBReWWx7BaDwQ0mf8q7WuxHdwDuNwqWY5P5HK6-i-V2zDxzxfqA0BqZnHcsyCo7YTmoTYoh2SmFo8_6ZGT9-lqTkuTFu_UDdSsgQvOSN5pchQUu7WcGco1NiLMHZBJhgHjHlfMD84rR6WP25BNbw6AKPG-YVVHY_HZ7a8qBq1_3RYR25jI8u6h1Tb6WNuVmR66F79E0ZnVkcoUcYl5QIAgZSkH8hNUa8Snb1acWtXdPAiGuvOYZYBXMssd1d5oDRb3uk1GBQyE3frICfUnA_4lMf8OMlRs0k8yMJ_DJ8-7J0gPUzSNMrzXglh-T9pj03NXObpYFlYiZ1XvYYBToz60MmKwIjc2ryJLzJ-3HRdAdN_R2sddzvfyUjI4O1kX8eT59D_pV7gxQ3eS00EwmtR5czB6SMiVOKbOt3AtoK0UbHMBqQhnCM0AR56LnjZlKIvsaojnnPf4am_pqaWIqVlhtYYIz3aphIDDIgWJcrXOz8XB0v_sKudl_8IJbZ8SZcQHNLNhhl718O-6oiR1zRSwpexf23fqnw62oZorD2kLqkz0nkcLqjiiI-vPqY4rH_Efd1ptoXkjlJihOyqZoGjpdgp7y0]--></g></svg>