<svg xmlns="http://www.w3.org/2000/svg" xmlns:xlink="http://www.w3.org/1999/xlink" contentStyleType="text/css" height="757px" preserveAspectRatio="none" style="width:1349px;height:757px;background:#FFFFFF;" version="1.1" viewBox="0 0 1349 757" width="1349px" zoomAndPan="magnify"><defs/><g><!--class HentNabolisteResultat--><g id="elem_HentNabolisteResultat"><rect codeLine="1" fill="#F1F1F1" height="64.4883" id="HentNabolisteResultat" rx="2.5" ry="2.5" style="stroke:#181818;stroke-width:0.5;" width="212" x="7" y="7"/><ellipse cx="35.05" cy="23" fill="#ADD1B2" rx="11" ry="11" style="stroke:#181818;stroke-width:1.0;"/><path d="M37.5231,29.1431 Q36.9421,29.4419 36.3029,29.5913 Q35.6638,29.7407 34.9582,29.7407 Q32.4514,29.7407 31.1315,28.0889 Q29.8117,26.437 29.8117,23.3159 Q29.8117,20.1865 31.1315,18.5347 Q32.4514,16.8828 34.9582,16.8828 Q35.6638,16.8828 36.3112,17.0322 Q36.9587,17.1816 37.5231,17.4805 L37.5231,20.2031 Q36.8923,19.6221 36.2988,19.3523 Q35.7053,19.0825 35.0744,19.0825 Q33.7297,19.0825 33.0449,20.1492 Q32.3601,21.2158 32.3601,23.3159 Q32.3601,25.4077 33.0449,26.4744 Q33.7297,27.541 35.0744,27.541 Q35.7053,27.541 36.2988,27.2712 Q36.8923,27.0015 37.5231,26.4204 Z " fill="#000000"/><text fill="#000000" font-family="sans-serif" font-size="14" lengthAdjust="spacing" textLength="151" x="51.95" y="28.291">HentNabolisteResultat</text><line style="stroke:#181818;stroke-width:0.5;" x1="8" x2="218" y1="39" y2="39"/><text fill="#000000" font-family="sans-serif" font-size="14" lengthAdjust="spacing" textLength="200" x="13" y="56.5352">naboeiendommer: Eiendom[]</text><line style="stroke:#181818;stroke-width:0.5;" x1="8" x2="218" y1="63.4883" y2="63.4883"/></g><!--class Eiendom--><g id="elem_Eiendom"><rect codeLine="7" fill="#F1F1F1" height="97.4648" id="Eiendom" rx="2.5" ry="2.5" style="stroke:#181818;stroke-width:0.5;" width="277" x="212.5" y="131.49"/><ellipse cx="316.75" cy="147.49" fill="#ADD1B2" rx="11" ry="11" style="stroke:#181818;stroke-width:1.0;"/><path d="M319.2231,153.6331 Q318.6421,153.9319 318.0029,154.0813 Q317.3638,154.2307 316.6582,154.2307 Q314.1514,154.2307 312.8315,152.5789 Q311.5117,150.927 311.5117,147.8059 Q311.5117,144.6765 312.8315,143.0247 Q314.1514,141.3728 316.6582,141.3728 Q317.3638,141.3728 318.0112,141.5222 Q318.6587,141.6716 319.2231,141.9705 L319.2231,144.6931 Q318.5923,144.1121 317.9988,143.8423 Q317.4053,143.5725 316.7744,143.5725 Q315.4297,143.5725 314.7449,144.6392 Q314.0601,145.7058 314.0601,147.8059 Q314.0601,149.8977 314.7449,150.9644 Q315.4297,152.031 316.7744,152.031 Q317.4053,152.031 317.9988,151.7612 Q318.5923,151.4915 319.2231,150.9104 Z " fill="#000000"/><text fill="#000000" font-family="sans-serif" font-size="14" lengthAdjust="spacing" textLength="60" x="337.25" y="152.781">Eiendom</text><line style="stroke:#181818;stroke-width:0.5;" x1="213.5" x2="488.5" y1="163.49" y2="163.49"/><ellipse cx="223.5" cy="177.2341" fill="#000000" rx="3" ry="3" style="stroke:#000000;stroke-width:1.0;"/><text fill="#000000" font-family="sans-serif" font-size="14" lengthAdjust="spacing" textLength="251" x="232.5" y="181.0252">matrikkelnummer: Matrikkelnummer</text><text fill="#000000" font-family="sans-serif" font-size="14" lengthAdjust="spacing" textLength="78" x="232.5" y="197.5134">eiere: Eier[]</text><text fill="#000000" font-family="sans-serif" font-size="14" lengthAdjust="spacing" textLength="192" x="232.5" y="214.0017">eiendomadresser: Adresse[]</text><line style="stroke:#181818;stroke-width:0.5;" x1="213.5" x2="488.5" y1="220.9548" y2="220.9548"/></g><g id="elem_GMN5"><path d="M253.5,26.59 L253.5,51.9005 A0,0 0 0 0 253.5,51.9005 L565.21,51.9005 L433.89,131.02 L573.21,51.9005 L926.5,51.9005 A0,0 0 0 0 926.5,51.9005 L926.5,36.59 L916.5,26.59 L253.5,26.59 A0,0 0 0 0 253.5,26.59 " fill="#FEFFDD" style="stroke:#181818;stroke-width:0.5;"/><path d="M916.5,26.59 L916.5,36.59 L926.5,36.59 L916.5,26.59 " fill="#FEFFDD" style="stroke:#181818;stroke-width:0.5;"/><text fill="#000000" font-family="sans-serif" font-size="13" lengthAdjust="spacing" textLength="652" x="259.5" y="44.1584">Man kan velge om man &#248;nsker "eiere" og "eiendomadresser" i resultatet med parameter i LINK adressen.</text></g><!--class Matrikkelnummer--><g id="elem_Matrikkelnummer"><rect codeLine="18" fill="#F1F1F1" height="130.4414" id="Matrikkelnummer" rx="2.5" ry="2.5" style="stroke:#181818;stroke-width:0.5;" width="201" x="406.5" y="479.39"/><ellipse cx="443.1" cy="495.39" fill="#ADD1B2" rx="11" ry="11" style="stroke:#181818;stroke-width:1.0;"/><path d="M445.5731,501.5331 Q444.9921,501.8319 444.3529,501.9813 Q443.7138,502.1307 443.0082,502.1307 Q440.5014,502.1307 439.1815,500.4789 Q437.8617,498.827 437.8617,495.7059 Q437.8617,492.5765 439.1815,490.9247 Q440.5014,489.2728 443.0082,489.2728 Q443.7138,489.2728 444.3612,489.4222 Q445.0087,489.5716 445.5731,489.8705 L445.5731,492.5931 Q444.9423,492.0121 444.3488,491.7423 Q443.7553,491.4725 443.1244,491.4725 Q441.7797,491.4725 441.0949,492.5392 Q440.4101,493.6058 440.4101,495.7059 Q440.4101,497.7977 441.0949,498.8644 Q441.7797,499.931 443.1244,499.931 Q443.7553,499.931 444.3488,499.6612 Q444.9423,499.3915 445.5731,498.8104 Z " fill="#000000"/><text fill="#000000" font-family="sans-serif" font-size="14" lengthAdjust="spacing" textLength="121" x="461.9" y="500.681">Matrikkelnummer</text><line style="stroke:#181818;stroke-width:0.5;" x1="407.5" x2="606.5" y1="511.39" y2="511.39"/><ellipse cx="417.5" cy="525.1341" fill="#000000" rx="3" ry="3" style="stroke:#000000;stroke-width:1.0;"/><text fill="#000000" font-family="sans-serif" font-size="14" lengthAdjust="spacing" textLength="175" x="426.5" y="528.9252">kommunenummer: string</text><ellipse cx="417.5" cy="541.6224" fill="#000000" rx="3" ry="3" style="stroke:#000000;stroke-width:1.0;"/><text fill="#000000" font-family="sans-serif" font-size="14" lengthAdjust="spacing" textLength="162" x="426.5" y="545.4134">gaardsnummer: integer</text><ellipse cx="417.5" cy="558.1107" fill="#000000" rx="3" ry="3" style="stroke:#000000;stroke-width:1.0;"/><text fill="#000000" font-family="sans-serif" font-size="14" lengthAdjust="spacing" textLength="154" x="426.5" y="561.9017">bruksnummer: integer</text><text fill="#000000" font-family="sans-serif" font-size="14" lengthAdjust="spacing" textLength="148" x="426.5" y="578.39">festenummer: integer</text><text fill="#000000" font-family="sans-serif" font-size="14" lengthAdjust="spacing" textLength="174" x="426.5" y="594.8783">seksjonsnummer: integer</text><line style="stroke:#181818;stroke-width:0.5;" x1="407.5" x2="606.5" y1="601.8314" y2="601.8314"/></g><!--class Adresse--><g id="elem_Adresse"><rect codeLine="30" fill="#F1F1F1" height="130.4414" id="Adresse" rx="2.5" ry="2.5" style="stroke:#181818;stroke-width:0.5;" width="235" x="278.5" y="288.95"/><ellipse cx="364.25" cy="304.95" fill="#ADD1B2" rx="11" ry="11" style="stroke:#181818;stroke-width:1.0;"/><path d="M366.7231,311.0931 Q366.1421,311.3919 365.5029,311.5413 Q364.8638,311.6907 364.1582,311.6907 Q361.6514,311.6907 360.3315,310.0389 Q359.0117,308.387 359.0117,305.2659 Q359.0117,302.1365 360.3315,300.4847 Q361.6514,298.8328 364.1582,298.8328 Q364.8638,298.8328 365.5112,298.9822 Q366.1587,299.1316 366.7231,299.4305 L366.7231,302.1531 Q366.0923,301.5721 365.4988,301.3023 Q364.9053,301.0325 364.2744,301.0325 Q362.9297,301.0325 362.2449,302.0992 Q361.5601,303.1658 361.5601,305.2659 Q361.5601,307.3577 362.2449,308.4244 Q362.9297,309.491 364.2744,309.491 Q364.9053,309.491 365.4988,309.2212 Q366.0923,308.9515 366.7231,308.3704 Z " fill="#000000"/><text fill="#000000" font-family="sans-serif" font-size="14" lengthAdjust="spacing" textLength="55" x="384.75" y="310.241">Adresse</text><line style="stroke:#181818;stroke-width:0.5;" x1="279.5" x2="512.5" y1="320.95" y2="320.95"/><text fill="#000000" font-family="sans-serif" font-size="14" lengthAdjust="spacing" textLength="223" x="284.5" y="338.4852">adressetype: Adressetype&#171;Kode&#187;</text><text fill="#000000" font-family="sans-serif" font-size="14" lengthAdjust="spacing" textLength="101" x="284.5" y="354.9734">adresse: string</text><text fill="#000000" font-family="sans-serif" font-size="14" lengthAdjust="spacing" textLength="136" x="284.5" y="371.4617">postnummer: string</text><text fill="#000000" font-family="sans-serif" font-size="14" lengthAdjust="spacing" textLength="107" x="284.5" y="387.95">poststed: string</text><text fill="#000000" font-family="sans-serif" font-size="14" lengthAdjust="spacing" textLength="112" x="284.5" y="404.4383">landkode: string</text><line style="stroke:#181818;stroke-width:0.5;" x1="279.5" x2="512.5" y1="411.3914" y2="411.3914"/></g><!--class Eier--><g id="elem_Eier"><rect codeLine="38" fill="#F1F1F1" height="113.9531" id="Eier" rx="2.5" ry="2.5" style="stroke:#181818;stroke-width:0.5;" width="277" x="548.5" y="297.19"/><ellipse cx="669.75" cy="313.19" fill="#ADD1B2" rx="11" ry="11" style="stroke:#181818;stroke-width:1.0;"/><path d="M672.2231,319.3331 Q671.6421,319.6319 671.0029,319.7813 Q670.3638,319.9307 669.6582,319.9307 Q667.1514,319.9307 665.8315,318.2789 Q664.5117,316.627 664.5117,313.5059 Q664.5117,310.3765 665.8315,308.7247 Q667.1514,307.0728 669.6582,307.0728 Q670.3638,307.0728 671.0112,307.2222 Q671.6587,307.3716 672.2231,307.6705 L672.2231,310.3931 Q671.5923,309.8121 670.9988,309.5423 Q670.4053,309.2725 669.7744,309.2725 Q668.4297,309.2725 667.7449,310.3392 Q667.0601,311.4058 667.0601,313.5059 Q667.0601,315.5977 667.7449,316.6644 Q668.4297,317.731 669.7744,317.731 Q670.4053,317.731 670.9988,317.4612 Q671.5923,317.1915 672.2231,316.6104 Z " fill="#000000"/><text fill="#000000" font-family="sans-serif" font-size="14" lengthAdjust="spacing" textLength="26" x="690.25" y="318.481">Eier</text><line style="stroke:#181818;stroke-width:0.5;" x1="549.5" x2="824.5" y1="329.19" y2="329.19"/><ellipse cx="559.5" cy="342.9341" fill="#000000" rx="3" ry="3" style="stroke:#000000;stroke-width:1.0;"/><text fill="#000000" font-family="sans-serif" font-size="14" lengthAdjust="spacing" textLength="211" x="568.5" y="346.7252">eierforhold: Eierforhold&#171;Kode&#187;</text><ellipse cx="559.5" cy="359.4224" fill="#000000" rx="3" ry="3" style="stroke:#000000;stroke-width:1.0;"/><text fill="#000000" font-family="sans-serif" font-size="14" lengthAdjust="spacing" textLength="135" x="568.5" y="363.2134">andel: Andel&#171;Kode&#187;</text><text fill="#000000" font-family="sans-serif" font-size="14" lengthAdjust="spacing" textLength="113" x="568.5" y="379.7017">kontakt: Kontakt</text><text fill="#000000" font-family="sans-serif" font-size="14" lengthAdjust="spacing" textLength="251" x="568.5" y="396.19">matrikkelnummer: Matrikkelnummer</text><line style="stroke:#181818;stroke-width:0.5;" x1="549.5" x2="824.5" y1="403.1431" y2="403.1431"/></g><g id="elem_GMN14"><path d="M524,152.25 L524,208.1816 A0,0 0 0 0 524,208.1816 L720.03,208.1816 L701.41,296.87 L728.03,208.1816 L938,208.1816 A0,0 0 0 0 938,208.1816 L938,162.25 L928,152.25 L524,152.25 A0,0 0 0 0 524,152.25 " fill="#FEFFDD" style="stroke:#181818;stroke-width:0.5;"/><path d="M928,152.25 L928,162.25 L938,162.25 L928,152.25 " fill="#FEFFDD" style="stroke:#181818;stroke-width:0.5;"/><text fill="#000000" font-family="sans-serif" font-size="13" lengthAdjust="spacing" textLength="214" x="530" y="169.8184">Eierforhold kommer fra matrikkel.</text><text fill="#000000" font-family="sans-serif" font-size="13" lengthAdjust="spacing" textLength="352" x="530" y="185.1289">Eier har enten kontakt eller matrikkelnummer registrert,</text><text fill="#000000" font-family="sans-serif" font-size="13" lengthAdjust="spacing" textLength="393" x="530" y="200.4395">og er ut i fra det enten en "matrikkeleier" eller en "kontakteier"</text></g><!--class Kontakt--><g id="elem_Kontakt"><rect codeLine="51" fill="#F1F1F1" height="130.4414" id="Kontakt" rx="2.5" ry="2.5" style="stroke:#181818;stroke-width:0.5;" width="241" x="745.5" y="479.39"/><ellipse cx="835.25" cy="495.39" fill="#ADD1B2" rx="11" ry="11" style="stroke:#181818;stroke-width:1.0;"/><path d="M837.7231,501.5331 Q837.1421,501.8319 836.5029,501.9813 Q835.8638,502.1307 835.1582,502.1307 Q832.6514,502.1307 831.3315,500.4789 Q830.0117,498.827 830.0117,495.7059 Q830.0117,492.5765 831.3315,490.9247 Q832.6514,489.2728 835.1582,489.2728 Q835.8638,489.2728 836.5112,489.4222 Q837.1587,489.5716 837.7231,489.8705 L837.7231,492.5931 Q837.0923,492.0121 836.4988,491.7423 Q835.9053,491.4725 835.2744,491.4725 Q833.9297,491.4725 833.2449,492.5392 Q832.5601,493.6058 832.5601,495.7059 Q832.5601,497.7977 833.2449,498.8644 Q833.9297,499.931 835.2744,499.931 Q835.9053,499.931 836.4988,499.6612 Q837.0923,499.3915 837.7231,498.8104 Z " fill="#000000"/><text fill="#000000" font-family="sans-serif" font-size="14" lengthAdjust="spacing" textLength="53" x="855.75" y="500.681">Kontakt</text><line style="stroke:#181818;stroke-width:0.5;" x1="746.5" x2="985.5" y1="511.39" y2="511.39"/><ellipse cx="756.5" cy="525.1341" fill="#000000" rx="3" ry="3" style="stroke:#000000;stroke-width:1.0;"/><text fill="#000000" font-family="sans-serif" font-size="14" lengthAdjust="spacing" textLength="81" x="765.5" y="528.9252">navn: string</text><text fill="#000000" font-family="sans-serif" font-size="14" lengthAdjust="spacing" textLength="130" x="765.5" y="545.4134">personid: PersonID</text><text fill="#000000" font-family="sans-serif" font-size="14" lengthAdjust="spacing" textLength="113" x="765.5" y="561.9017">etternavn: string</text><text fill="#000000" font-family="sans-serif" font-size="14" lengthAdjust="spacing" textLength="101" x="765.5" y="578.39">fornavn: string</text><text fill="#000000" font-family="sans-serif" font-size="14" lengthAdjust="spacing" textLength="215" x="765.5" y="594.8783">organisasjonid: OrganisasjonID</text><line style="stroke:#181818;stroke-width:0.5;" x1="746.5" x2="985.5" y1="601.8314" y2="601.8314"/></g><!--class PersonID--><g id="elem_PersonID"><rect codeLine="62" fill="#F1F1F1" height="80.9766" id="PersonID" rx="2.5" ry="2.5" style="stroke:#181818;stroke-width:0.5;" width="158" x="690" y="669.83"/><ellipse cx="734.25" cy="685.83" fill="#ADD1B2" rx="11" ry="11" style="stroke:#181818;stroke-width:1.0;"/><path d="M736.7231,691.9731 Q736.1421,692.2719 735.5029,692.4213 Q734.8638,692.5707 734.1582,692.5707 Q731.6514,692.5707 730.3315,690.9189 Q729.0117,689.267 729.0117,686.1459 Q729.0117,683.0165 730.3315,681.3647 Q731.6514,679.7128 734.1582,679.7128 Q734.8638,679.7128 735.5112,679.8622 Q736.1587,680.0116 736.7231,680.3105 L736.7231,683.0331 Q736.0923,682.4521 735.4988,682.1823 Q734.9053,681.9125 734.2744,681.9125 Q732.9297,681.9125 732.2449,682.9792 Q731.5601,684.0458 731.5601,686.1459 Q731.5601,688.2377 732.2449,689.3044 Q732.9297,690.371 734.2744,690.371 Q734.9053,690.371 735.4988,690.1012 Q736.0923,689.8315 736.7231,689.2504 Z " fill="#000000"/><text fill="#000000" font-family="sans-serif" font-size="14" lengthAdjust="spacing" textLength="61" x="754.75" y="691.121">PersonID</text><line style="stroke:#181818;stroke-width:0.5;" x1="691" x2="847" y1="701.83" y2="701.83"/><ellipse cx="701" cy="715.5741" fill="#000000" rx="3" ry="3" style="stroke:#000000;stroke-width:1.0;"/><text fill="#000000" font-family="sans-serif" font-size="14" lengthAdjust="spacing" textLength="112" x="710" y="719.3652">landkode: string</text><ellipse cx="701" cy="732.0624" fill="#000000" rx="3" ry="3" style="stroke:#000000;stroke-width:1.0;"/><text fill="#000000" font-family="sans-serif" font-size="14" lengthAdjust="spacing" textLength="132" x="710" y="735.8534">identifikator: string</text><line style="stroke:#181818;stroke-width:0.5;" x1="691" x2="847" y1="742.8066" y2="742.8066"/></g><!--class OrganisasjonID--><g id="elem_OrganisasjonID"><rect codeLine="67" fill="#F1F1F1" height="80.9766" id="OrganisasjonID" rx="2.5" ry="2.5" style="stroke:#181818;stroke-width:0.5;" width="158" x="883" y="669.83"/><ellipse cx="907.45" cy="685.83" fill="#ADD1B2" rx="11" ry="11" style="stroke:#181818;stroke-width:1.0;"/><path d="M909.9231,691.9731 Q909.3421,692.2719 908.7029,692.4213 Q908.0638,692.5707 907.3582,692.5707 Q904.8514,692.5707 903.5315,690.9189 Q902.2117,689.267 902.2117,686.1459 Q902.2117,683.0165 903.5315,681.3647 Q904.8514,679.7128 907.3582,679.7128 Q908.0638,679.7128 908.7112,679.8622 Q909.3587,680.0116 909.9231,680.3105 L909.9231,683.0331 Q909.2923,682.4521 908.6988,682.1823 Q908.1053,681.9125 907.4744,681.9125 Q906.1297,681.9125 905.4449,682.9792 Q904.7601,684.0458 904.7601,686.1459 Q904.7601,688.2377 905.4449,689.3044 Q906.1297,690.371 907.4744,690.371 Q908.1053,690.371 908.6988,690.1012 Q909.2923,689.8315 909.9231,689.2504 Z " fill="#000000"/><text fill="#000000" font-family="sans-serif" font-size="14" lengthAdjust="spacing" textLength="105" x="923.55" y="691.121">OrganisasjonID</text><line style="stroke:#181818;stroke-width:0.5;" x1="884" x2="1040" y1="701.83" y2="701.83"/><ellipse cx="894" cy="715.5741" fill="#000000" rx="3" ry="3" style="stroke:#000000;stroke-width:1.0;"/><text fill="#000000" font-family="sans-serif" font-size="14" lengthAdjust="spacing" textLength="112" x="903" y="719.3652">landkode: string</text><ellipse cx="894" cy="732.0624" fill="#000000" rx="3" ry="3" style="stroke:#000000;stroke-width:1.0;"/><text fill="#000000" font-family="sans-serif" font-size="14" lengthAdjust="spacing" textLength="132" x="903" y="735.8534">identifikator: string</text><line style="stroke:#181818;stroke-width:0.5;" x1="884" x2="1040" y1="742.8066" y2="742.8066"/></g><g id="elem_GMN24"><path d="M860,326.21 L860,382.1416 A0,0 0 0 0 860,382.1416 L1062.83,382.1416 L946.44,479.11 L1070.83,382.1416 L1342,382.1416 A0,0 0 0 0 1342,382.1416 L1342,336.21 L1332,326.21 L860,326.21 A0,0 0 0 0 860,326.21 " fill="#FEFFDD" style="stroke:#181818;stroke-width:0.5;"/><path d="M1332,326.21 L1332,336.21 L1342,336.21 L1332,326.21 " fill="#FEFFDD" style="stroke:#181818;stroke-width:0.5;"/><text fill="#000000" font-family="sans-serif" font-size="13" lengthAdjust="spacing" textLength="318" x="866" y="343.7784">Denne b&#248;r v&#230;re lik som datamodellen i Fiks Arkiv.</text><text fill="#000000" font-family="sans-serif" font-size="13" lengthAdjust="spacing" textLength="346" x="866" y="359.0889">Enten er persondata eller organisasjonsnummer fylt ut.</text><text fill="#000000" font-family="sans-serif" font-size="13" lengthAdjust="spacing" textLength="461" x="866" y="374.3995">Ut i fra dette er det enten en kontaktperson eller en kontaktorganisasjon.</text></g><!--link HentNabolisteResultat to Eiendom--><g id="link_HentNabolisteResultat_Eiendom"><path codeLine="5" d="M167.3,71.95 C197.21,89.42 234.95,111.45 268.44,131.01 " fill="none" id="HentNabolisteResultat-Eiendom" style="stroke:#181818;stroke-width:1.0;stroke-dasharray:7.0,7.0;"/></g><!--link Eiendom to Matrikkelnummer--><g id="link_Eiendom_Matrikkelnummer"><path codeLine="16" d="M298.59,229.36 C283.48,246.52 268.94,267.07 261,288.95 C241.23,343.45 230.62,370.02 261,419.39 C292.72,470.94 353.16,501.87 406.19,519.98 " fill="none" id="Eiendom-Matrikkelnummer" style="stroke:#181818;stroke-width:1.0;stroke-dasharray:7.0,7.0;"/></g><!--reverse link Eiendom to Adresse--><g id="link_Eiendom_Adresse"><path codeLine="27" d="M366.574,240.7275 C371.394,259.1075 373.92,268.8 379.08,288.5 " fill="none" id="Eiendom-backto-Adresse" style="stroke:#181818;stroke-width:1.0;stroke-dasharray:7.0,7.0;"/><polygon fill="#181818" points="363.53,229.12,361.1828,235.9384,366.574,240.7275,368.9212,233.9091,363.53,229.12" style="stroke:#181818;stroke-width:1.0;"/></g><!--reverse link Eiendom to Eier--><g id="link_Eiendom_Eier"><path codeLine="28" d="M455.7231,234.8154 C496.6931,255.7754 534.3,275.02 576.92,296.84 " fill="none" id="Eiendom-backto-Eier" style="stroke:#181818;stroke-width:1.0;stroke-dasharray:7.0,7.0;"/><polygon fill="#181818" points="445.04,229.35,448.5598,235.6438,455.7231,234.8154,452.2034,228.5217,445.04,229.35" style="stroke:#181818;stroke-width:1.0;"/></g><!--link Eier to Kontakt--><g id="link_Eier_Kontakt"><path codeLine="48" d="M740.46,411.45 C760.65,432.71 783.78,457.06 804.64,479.02 " fill="none" id="Eier-Kontakt" style="stroke:#181818;stroke-width:1.0;stroke-dasharray:7.0,7.0;"/></g><!--link Eier to Matrikkelnummer--><g id="link_Eier_Matrikkelnummer"><path codeLine="49" d="M633.24,411.45 C612.93,432.71 589.68,457.06 568.7,479.02 " fill="none" id="Eier-Matrikkelnummer" style="stroke:#181818;stroke-width:1.0;stroke-dasharray:7.0,7.0;"/></g><!--link Kontakt to PersonID--><g id="link_Kontakt_PersonID"><path codeLine="59" d="M827.66,610.31 C815.8,630.33 803.09,651.79 792.54,669.59 " fill="none" id="Kontakt-PersonID" style="stroke:#181818;stroke-width:1.0;stroke-dasharray:7.0,7.0;"/></g><!--link Kontakt to OrganisasjonID--><g id="link_Kontakt_OrganisasjonID"><path codeLine="60" d="M903.94,610.31 C915.68,630.33 928.26,651.79 938.7,669.59 " fill="none" id="Kontakt-OrganisasjonID" style="stroke:#181818;stroke-width:1.0;stroke-dasharray:7.0,7.0;"/></g><!--SRC=[dLFDQXin4BxlKmm-ck87C25GI4k3cwGKUcfwaBEp6rNQaHd9Xb3yEds6tFrY7QsapQxNfL1ZO-cRqJT_tpnPvJryGWhtQkkizW6_ej_Re0Byga0-93XgfDfr7V8QFgJpzn_LiQekFrojYbTLFVK1yZLJBg5JWRKnQ6cVME-cGEycKHdxW2pHCX9fLCteVNpsFfrICkG2Gd0xSCqGC38J6FaTqBO80dLoERsIDyYmw6CimBNzSKo-00sSAy807TQmKwmw3F9Em-VR-mraNrfLLLKYIl7dnUGcdC6b6KOQkoSidV3YH6qojKfnxOj5Ky0szsQvvRsvQ6bGHd79uD7uduvcZuwZv9UIVUxf18ipA6LaUqu_jo2yx70OHxnSNMrSZTVNOwT9SJldmuMQ8om5r1FGAggDq0tWSIIieP5nbetZPsVhf9fycQIo52gqachycrYCew1CMCCc7NhmdqATwuvX4XrClpZGi7fZMprIx_ci66I5a4fqG6i5FmihGcnbmnWvl7ia4Qj0-o0gZAIrg3Dno7Snl8pTM6IwQCW1UZXDdADMIx7b_XVjPhVIQb87ceuDsJlIqlWl_Uds9Yria6sPEKjdPfZZLf7sAaeqqZoCxa8cRIufI993Z15szY3dNJnBuZCbzQYkfO6wqKO5ntEHJQd_asgiafBs6cwG265xUcKud7upWjK6l6nThOBgX5tcHpBeZzh8vh7HXoYTD6tENO-kUT3ZBkP5X-R51b6BlFisaema8xQ9Th924kcRSZ8yfbvLVm00]--></g></svg>