<svg xmlns="http://www.w3.org/2000/svg" xmlns:xlink="http://www.w3.org/1999/xlink" contentStyleType="text/css" height="898px" preserveAspectRatio="none" style="width:1077px;height:898px;background:#FFFFFF;" version="1.1" viewBox="0 0 1077 898" width="1077px" zoomAndPan="magnify"><defs/><g><!--class HentNabolisteResultat--><g id="elem_HentNabolisteResultat"><rect codeLine="1" fill="#F1F1F1" height="64.4883" id="HentNabolisteResultat" rx="2.5" ry="2.5" style="stroke:#181818;stroke-width:0.5;" width="212" x="7" y="7"/><ellipse cx="35.05" cy="23" fill="#ADD1B2" rx="11" ry="11" style="stroke:#181818;stroke-width:1.0;"/><path d="M37.5231,29.1431 Q36.9421,29.4419 36.3029,29.5913 Q35.6638,29.7407 34.9582,29.7407 Q32.4514,29.7407 31.1315,28.0889 Q29.8117,26.437 29.8117,23.3159 Q29.8117,20.1865 31.1315,18.5347 Q32.4514,16.8828 34.9582,16.8828 Q35.6638,16.8828 36.3112,17.0322 Q36.9587,17.1816 37.5231,17.4805 L37.5231,20.2031 Q36.8923,19.6221 36.2988,19.3523 Q35.7053,19.0825 35.0744,19.0825 Q33.7297,19.0825 33.0449,20.1492 Q32.3601,21.2158 32.3601,23.3159 Q32.3601,25.4077 33.0449,26.4744 Q33.7297,27.541 35.0744,27.541 Q35.7053,27.541 36.2988,27.2712 Q36.8923,27.0015 37.5231,26.4204 Z " fill="#000000"/><text fill="#000000" font-family="sans-serif" font-size="14" lengthAdjust="spacing" textLength="151" x="51.95" y="28.291">HentNabolisteResultat</text><line style="stroke:#181818;stroke-width:0.5;" x1="8" x2="218" y1="39" y2="39"/><text fill="#000000" font-family="sans-serif" font-size="14" lengthAdjust="spacing" textLength="200" x="13" y="56.5352">naboeiendommer: Eiendom[]</text><line style="stroke:#181818;stroke-width:0.5;" x1="8" x2="218" y1="63.4883" y2="63.4883"/></g><!--class Eiendom--><g id="elem_Eiendom"><rect codeLine="7" fill="#F1F1F1" height="97.4648" id="Eiendom" rx="2.5" ry="2.5" style="stroke:#181818;stroke-width:0.5;" width="277" x="212.5" y="131.49"/><ellipse cx="316.75" cy="147.49" fill="#ADD1B2" rx="11" ry="11" style="stroke:#181818;stroke-width:1.0;"/><path d="M319.2231,153.6331 Q318.6421,153.9319 318.0029,154.0813 Q317.3638,154.2307 316.6582,154.2307 Q314.1514,154.2307 312.8315,152.5789 Q311.5117,150.927 311.5117,147.8059 Q311.5117,144.6765 312.8315,143.0247 Q314.1514,141.3728 316.6582,141.3728 Q317.3638,141.3728 318.0112,141.5222 Q318.6587,141.6716 319.2231,141.9705 L319.2231,144.6931 Q318.5923,144.1121 317.9988,143.8423 Q317.4053,143.5725 316.7744,143.5725 Q315.4297,143.5725 314.7449,144.6392 Q314.0601,145.7058 314.0601,147.8059 Q314.0601,149.8977 314.7449,150.9644 Q315.4297,152.031 316.7744,152.031 Q317.4053,152.031 317.9988,151.7612 Q318.5923,151.4915 319.2231,150.9104 Z " fill="#000000"/><text fill="#000000" font-family="sans-serif" font-size="14" lengthAdjust="spacing" textLength="60" x="337.25" y="152.781">Eiendom</text><line style="stroke:#181818;stroke-width:0.5;" x1="213.5" x2="488.5" y1="163.49" y2="163.49"/><ellipse cx="223.5" cy="177.2341" fill="#000000" rx="3" ry="3" style="stroke:#000000;stroke-width:1.0;"/><text fill="#000000" font-family="sans-serif" font-size="14" lengthAdjust="spacing" textLength="251" x="232.5" y="181.0252">matrikkelnummer: Matrikkelnummer</text><text fill="#000000" font-family="sans-serif" font-size="14" lengthAdjust="spacing" textLength="78" x="232.5" y="197.5134">eiere: Eier[]</text><text fill="#000000" font-family="sans-serif" font-size="14" lengthAdjust="spacing" textLength="192" x="232.5" y="214.0017">eiendomadresser: Adresse[]</text><line style="stroke:#181818;stroke-width:0.5;" x1="213.5" x2="488.5" y1="220.9548" y2="220.9548"/></g><g id="elem_GMN5"><path d="M253.5,26.59 L253.5,51.9005 A0,0 0 0 0 253.5,51.9005 L565.21,51.9005 L433.89,131.02 L573.21,51.9005 L926.5,51.9005 A0,0 0 0 0 926.5,51.9005 L926.5,36.59 L916.5,26.59 L253.5,26.59 A0,0 0 0 0 253.5,26.59 " fill="#FEFFDD" style="stroke:#181818;stroke-width:0.5;"/><path d="M916.5,26.59 L916.5,36.59 L926.5,36.59 L916.5,26.59 " fill="#FEFFDD" style="stroke:#181818;stroke-width:0.5;"/><text fill="#000000" font-family="sans-serif" font-size="13" lengthAdjust="spacing" textLength="652" x="259.5" y="44.1584">Man kan velge om man &#248;nsker "eiere" og "eiendomadresser" i resultatet med parameter i LINK adressen.</text></g><!--class Matrikkelnummer--><g id="elem_Matrikkelnummer"><rect codeLine="18" fill="#F1F1F1" height="130.4414" id="Matrikkelnummer" rx="2.5" ry="2.5" style="stroke:#181818;stroke-width:0.5;" width="201" x="184.5" y="603.88"/><ellipse cx="221.1" cy="619.88" fill="#ADD1B2" rx="11" ry="11" style="stroke:#181818;stroke-width:1.0;"/><path d="M223.5731,626.0231 Q222.9921,626.3219 222.3529,626.4713 Q221.7138,626.6207 221.0082,626.6207 Q218.5014,626.6207 217.1815,624.9689 Q215.8617,623.317 215.8617,620.1959 Q215.8617,617.0665 217.1815,615.4147 Q218.5014,613.7628 221.0082,613.7628 Q221.7138,613.7628 222.3612,613.9122 Q223.0087,614.0616 223.5731,614.3605 L223.5731,617.0831 Q222.9423,616.5021 222.3488,616.2323 Q221.7553,615.9625 221.1244,615.9625 Q219.7797,615.9625 219.0949,617.0292 Q218.4101,618.0958 218.4101,620.1959 Q218.4101,622.2877 219.0949,623.3544 Q219.7797,624.421 221.1244,624.421 Q221.7553,624.421 222.3488,624.1512 Q222.9423,623.8815 223.5731,623.3004 Z " fill="#000000"/><text fill="#000000" font-family="sans-serif" font-size="14" lengthAdjust="spacing" textLength="121" x="239.9" y="625.171">Matrikkelnummer</text><line style="stroke:#181818;stroke-width:0.5;" x1="185.5" x2="384.5" y1="635.88" y2="635.88"/><ellipse cx="195.5" cy="649.6241" fill="#000000" rx="3" ry="3" style="stroke:#000000;stroke-width:1.0;"/><text fill="#000000" font-family="sans-serif" font-size="14" lengthAdjust="spacing" textLength="175" x="204.5" y="653.4152">kommunenummer: string</text><ellipse cx="195.5" cy="666.1124" fill="#000000" rx="3" ry="3" style="stroke:#000000;stroke-width:1.0;"/><text fill="#000000" font-family="sans-serif" font-size="14" lengthAdjust="spacing" textLength="162" x="204.5" y="669.9034">gaardsnummer: integer</text><ellipse cx="195.5" cy="682.6007" fill="#000000" rx="3" ry="3" style="stroke:#000000;stroke-width:1.0;"/><text fill="#000000" font-family="sans-serif" font-size="14" lengthAdjust="spacing" textLength="154" x="204.5" y="686.3917">bruksnummer: integer</text><text fill="#000000" font-family="sans-serif" font-size="14" lengthAdjust="spacing" textLength="148" x="204.5" y="702.88">festenummer: integer</text><text fill="#000000" font-family="sans-serif" font-size="14" lengthAdjust="spacing" textLength="174" x="204.5" y="719.3683">seksjonsnummer: integer</text><line style="stroke:#181818;stroke-width:0.5;" x1="185.5" x2="384.5" y1="726.3214" y2="726.3214"/></g><!--class Adresse--><g id="elem_Adresse"><rect codeLine="30" fill="#F1F1F1" height="130.4414" id="Adresse" rx="2.5" ry="2.5" style="stroke:#181818;stroke-width:0.5;" width="235" x="242.5" y="288.95"/><ellipse cx="328.25" cy="304.95" fill="#ADD1B2" rx="11" ry="11" style="stroke:#181818;stroke-width:1.0;"/><path d="M330.7231,311.0931 Q330.1421,311.3919 329.5029,311.5413 Q328.8638,311.6907 328.1582,311.6907 Q325.6514,311.6907 324.3315,310.0389 Q323.0117,308.387 323.0117,305.2659 Q323.0117,302.1365 324.3315,300.4847 Q325.6514,298.8328 328.1582,298.8328 Q328.8638,298.8328 329.5112,298.9822 Q330.1587,299.1316 330.7231,299.4305 L330.7231,302.1531 Q330.0923,301.5721 329.4988,301.3023 Q328.9053,301.0325 328.2744,301.0325 Q326.9297,301.0325 326.2449,302.0992 Q325.5601,303.1658 325.5601,305.2659 Q325.5601,307.3577 326.2449,308.4244 Q326.9297,309.491 328.2744,309.491 Q328.9053,309.491 329.4988,309.2212 Q330.0923,308.9515 330.7231,308.3704 Z " fill="#000000"/><text fill="#000000" font-family="sans-serif" font-size="14" lengthAdjust="spacing" textLength="55" x="348.75" y="310.241">Adresse</text><line style="stroke:#181818;stroke-width:0.5;" x1="243.5" x2="476.5" y1="320.95" y2="320.95"/><text fill="#000000" font-family="sans-serif" font-size="14" lengthAdjust="spacing" textLength="223" x="248.5" y="338.4852">adressetype: Adressetype&#171;Kode&#187;</text><text fill="#000000" font-family="sans-serif" font-size="14" lengthAdjust="spacing" textLength="139" x="248.5" y="354.9734">adresselinje1: string</text><text fill="#000000" font-family="sans-serif" font-size="14" lengthAdjust="spacing" textLength="139" x="248.5" y="371.4617">adresselinje2: string</text><text fill="#000000" font-family="sans-serif" font-size="14" lengthAdjust="spacing" textLength="222" x="248.5" y="387.95">postadresse: Postadresse&#171;Kode&#187;</text><text fill="#000000" font-family="sans-serif" font-size="14" lengthAdjust="spacing" textLength="188" x="248.5" y="404.4383">landkode: Landkode&#171;Kode&#187;</text><line style="stroke:#181818;stroke-width:0.5;" x1="243.5" x2="476.5" y1="411.3914" y2="411.3914"/></g><!--class Eier--><g id="elem_Eier"><rect codeLine="38" fill="#F1F1F1" height="80.9766" id="Eier" rx="2.5" ry="2.5" style="stroke:#181818;stroke-width:0.5;" width="237" x="512.5" y="313.69"/><ellipse cx="613.75" cy="329.69" fill="#ADD1B2" rx="11" ry="11" style="stroke:#181818;stroke-width:1.0;"/><path d="M616.2231,335.8331 Q615.6421,336.1319 615.0029,336.2813 Q614.3638,336.4307 613.6582,336.4307 Q611.1514,336.4307 609.8315,334.7789 Q608.5117,333.127 608.5117,330.0059 Q608.5117,326.8765 609.8315,325.2247 Q611.1514,323.5728 613.6582,323.5728 Q614.3638,323.5728 615.0112,323.7222 Q615.6587,323.8716 616.2231,324.1705 L616.2231,326.8931 Q615.5923,326.3121 614.9988,326.0423 Q614.4053,325.7725 613.7744,325.7725 Q612.4297,325.7725 611.7449,326.8392 Q611.0601,327.9058 611.0601,330.0059 Q611.0601,332.0977 611.7449,333.1644 Q612.4297,334.231 613.7744,334.231 Q614.4053,334.231 614.9988,333.9612 Q615.5923,333.6915 616.2231,333.1104 Z " fill="#000000"/><text fill="#000000" font-family="sans-serif" font-size="14" lengthAdjust="spacing" textLength="26" x="634.25" y="334.981">Eier</text><line style="stroke:#181818;stroke-width:0.5;" x1="513.5" x2="748.5" y1="345.69" y2="345.69"/><ellipse cx="523.5" cy="359.4341" fill="#000000" rx="3" ry="3" style="stroke:#000000;stroke-width:1.0;"/><text fill="#000000" font-family="sans-serif" font-size="14" lengthAdjust="spacing" textLength="211" x="532.5" y="363.2252">eierforhold: Eierforhold&#171;Kode&#187;</text><ellipse cx="523.5" cy="375.9224" fill="#000000" rx="3" ry="3" style="stroke:#000000;stroke-width:1.0;"/><text fill="#000000" font-family="sans-serif" font-size="14" lengthAdjust="spacing" textLength="135" x="532.5" y="379.7134">andel: Andel&#171;Kode&#187;</text><line style="stroke:#181818;stroke-width:0.5;" x1="513.5" x2="748.5" y1="386.6666" y2="386.6666"/></g><g id="elem_GMN14"><path d="M524.5,167.57 L524.5,192.8805 A0,0 0 0 0 524.5,192.8805 L635.37,192.8805 L633.09,313.28 L643.37,192.8805 L755.5,192.8805 A0,0 0 0 0 755.5,192.8805 L755.5,177.57 L745.5,167.57 L524.5,167.57 A0,0 0 0 0 524.5,167.57 " fill="#FEFFDD" style="stroke:#181818;stroke-width:0.5;"/><path d="M745.5,167.57 L745.5,177.57 L755.5,177.57 L745.5,167.57 " fill="#FEFFDD" style="stroke:#181818;stroke-width:0.5;"/><text fill="#000000" font-family="sans-serif" font-size="13" lengthAdjust="spacing" textLength="210" x="530.5" y="185.1384">Eierforhold kommer fra matrikkel</text></g><!--class KontaktEier--><g id="elem_KontaktEier"><rect codeLine="48" fill="#F1F1F1" height="64.4883" id="KontaktEier" rx="2.5" ry="2.5" style="stroke:#181818;stroke-width:0.5;" width="139" x="561.5" y="479.4"/><ellipse cx="589.1" cy="495.4" fill="#ADD1B2" rx="11" ry="11" style="stroke:#181818;stroke-width:1.0;"/><path d="M591.5731,501.5431 Q590.9921,501.8419 590.3529,501.9913 Q589.7138,502.1407 589.0082,502.1407 Q586.5014,502.1407 585.1815,500.4889 Q583.8617,498.837 583.8617,495.7159 Q583.8617,492.5865 585.1815,490.9347 Q586.5014,489.2828 589.0082,489.2828 Q589.7138,489.2828 590.3612,489.4322 Q591.0087,489.5816 591.5731,489.8805 L591.5731,492.6031 Q590.9423,492.0221 590.3488,491.7523 Q589.7553,491.4825 589.1244,491.4825 Q587.7797,491.4825 587.0949,492.5492 Q586.4101,493.6158 586.4101,495.7159 Q586.4101,497.8077 587.0949,498.8744 Q587.7797,499.941 589.1244,499.941 Q589.7553,499.941 590.3488,499.6712 Q590.9423,499.4015 591.5731,498.8204 Z " fill="#000000"/><text fill="#000000" font-family="sans-serif" font-size="14" lengthAdjust="spacing" textLength="79" x="605.9" y="500.691">KontaktEier</text><line style="stroke:#181818;stroke-width:0.5;" x1="562.5" x2="699.5" y1="511.4" y2="511.4"/><ellipse cx="572.5" cy="525.1441" fill="#000000" rx="3" ry="3" style="stroke:#000000;stroke-width:1.0;"/><text fill="#000000" font-family="sans-serif" font-size="14" lengthAdjust="spacing" textLength="113" x="581.5" y="528.9352">kontakt: Kontakt</text><line style="stroke:#181818;stroke-width:0.5;" x1="562.5" x2="699.5" y1="535.8883" y2="535.8883"/></g><!--class MatrikkelEier--><g id="elem_MatrikkelEier"><rect codeLine="54" fill="#F1F1F1" height="64.4883" id="MatrikkelEier" rx="2.5" ry="2.5" style="stroke:#181818;stroke-width:0.5;" width="277" x="245.5" y="479.4"/><ellipse cx="335.25" cy="495.4" fill="#ADD1B2" rx="11" ry="11" style="stroke:#181818;stroke-width:1.0;"/><path d="M337.7231,501.5431 Q337.1421,501.8419 336.5029,501.9913 Q335.8638,502.1407 335.1582,502.1407 Q332.6514,502.1407 331.3315,500.4889 Q330.0117,498.837 330.0117,495.7159 Q330.0117,492.5865 331.3315,490.9347 Q332.6514,489.2828 335.1582,489.2828 Q335.8638,489.2828 336.5112,489.4322 Q337.1587,489.5816 337.7231,489.8805 L337.7231,492.6031 Q337.0923,492.0221 336.4988,491.7523 Q335.9053,491.4825 335.2744,491.4825 Q333.9297,491.4825 333.2449,492.5492 Q332.5601,493.6158 332.5601,495.7159 Q332.5601,497.8077 333.2449,498.8744 Q333.9297,499.941 335.2744,499.941 Q335.9053,499.941 336.4988,499.6712 Q337.0923,499.4015 337.7231,498.8204 Z " fill="#000000"/><text fill="#000000" font-family="sans-serif" font-size="14" lengthAdjust="spacing" textLength="89" x="355.75" y="500.691">MatrikkelEier</text><line style="stroke:#181818;stroke-width:0.5;" x1="246.5" x2="521.5" y1="511.4" y2="511.4"/><ellipse cx="256.5" cy="525.1441" fill="#000000" rx="3" ry="3" style="stroke:#000000;stroke-width:1.0;"/><text fill="#000000" font-family="sans-serif" font-size="14" lengthAdjust="spacing" textLength="251" x="265.5" y="528.9352">matrikkelnummer: Matrikkelnummer</text><line style="stroke:#181818;stroke-width:0.5;" x1="246.5" x2="521.5" y1="535.8883" y2="535.8883"/></g><!--class Kontakt--><g id="elem_Kontakt"><rect codeLine="60" fill="#F1F1F1" height="64.4883" id="Kontakt" rx="2.5" ry="2.5" style="stroke:#181818;stroke-width:0.5;" width="107" x="713.5" y="636.86"/><ellipse cx="738.4" cy="652.86" fill="#ADD1B2" rx="11" ry="11" style="stroke:#181818;stroke-width:1.0;"/><path d="M740.8731,659.0031 Q740.2921,659.3019 739.6529,659.4513 Q739.0138,659.6007 738.3082,659.6007 Q735.8014,659.6007 734.4815,657.9489 Q733.1617,656.297 733.1617,653.1759 Q733.1617,650.0465 734.4815,648.3947 Q735.8014,646.7428 738.3082,646.7428 Q739.0138,646.7428 739.6612,646.8922 Q740.3087,647.0416 740.8731,647.3405 L740.8731,650.0631 Q740.2423,649.4821 739.6488,649.2123 Q739.0553,648.9425 738.4244,648.9425 Q737.0797,648.9425 736.3949,650.0092 Q735.7101,651.0758 735.7101,653.1759 Q735.7101,655.2677 736.3949,656.3344 Q737.0797,657.401 738.4244,657.401 Q739.0553,657.401 739.6488,657.1312 Q740.2423,656.8615 740.8731,656.2804 Z " fill="#000000"/><text fill="#000000" font-family="sans-serif" font-size="14" lengthAdjust="spacing" textLength="53" x="754.6" y="658.151">Kontakt</text><line style="stroke:#181818;stroke-width:0.5;" x1="714.5" x2="819.5" y1="668.86" y2="668.86"/><ellipse cx="724.5" cy="682.6041" fill="#000000" rx="3" ry="3" style="stroke:#000000;stroke-width:1.0;"/><text fill="#000000" font-family="sans-serif" font-size="14" lengthAdjust="spacing" textLength="81" x="733.5" y="686.3952">navn: string</text><line style="stroke:#181818;stroke-width:0.5;" x1="714.5" x2="819.5" y1="693.3483" y2="693.3483"/></g><g id="elem_GMN24"><path d="M735.5,498.98 L735.5,524.2905 A0,0 0 0 0 735.5,524.2905 L888.55,524.2905 L794.71,636.42 L896.55,524.2905 L1070.5,524.2905 A0,0 0 0 0 1070.5,524.2905 L1070.5,508.98 L1060.5,498.98 L735.5,498.98 A0,0 0 0 0 735.5,498.98 " fill="#FEFFDD" style="stroke:#181818;stroke-width:0.5;"/><path d="M1060.5,498.98 L1060.5,508.98 L1070.5,508.98 L1060.5,498.98 " fill="#FEFFDD" style="stroke:#181818;stroke-width:0.5;"/><text fill="#000000" font-family="sans-serif" font-size="13" lengthAdjust="spacing" textLength="314" x="741.5" y="516.5484">Denne b&#248;r v&#230;re lik som datamodellen i Fiks Arkiv</text></g><!--class KontaktPerson--><g id="elem_KontaktPerson"><rect codeLine="77" fill="#F1F1F1" height="97.4648" id="KontaktPerson" rx="2.5" ry="2.5" style="stroke:#181818;stroke-width:0.5;" width="139" x="587.5" y="794.33"/><ellipse cx="605.65" cy="810.33" fill="#ADD1B2" rx="11" ry="11" style="stroke:#181818;stroke-width:1.0;"/><path d="M608.1231,816.4731 Q607.5421,816.7719 606.9029,816.9213 Q606.2638,817.0707 605.5582,817.0707 Q603.0514,817.0707 601.7315,815.4189 Q600.4117,813.767 600.4117,810.6459 Q600.4117,807.5165 601.7315,805.8647 Q603.0514,804.2128 605.5582,804.2128 Q606.2638,804.2128 606.9112,804.3622 Q607.5587,804.5116 608.1231,804.8105 L608.1231,807.5331 Q607.4923,806.9521 606.8988,806.6823 Q606.3053,806.4125 605.6744,806.4125 Q604.3297,806.4125 603.6449,807.4792 Q602.9601,808.5458 602.9601,810.6459 Q602.9601,812.7377 603.6449,813.8044 Q604.3297,814.871 605.6744,814.871 Q606.3053,814.871 606.8988,814.6012 Q607.4923,814.3315 608.1231,813.7504 Z " fill="#000000"/><text fill="#000000" font-family="sans-serif" font-size="14" lengthAdjust="spacing" textLength="100" x="620.35" y="815.621">KontaktPerson</text><line style="stroke:#181818;stroke-width:0.5;" x1="588.5" x2="725.5" y1="826.33" y2="826.33"/><ellipse cx="598.5" cy="840.0741" fill="#000000" rx="3" ry="3" style="stroke:#000000;stroke-width:1.0;"/><text fill="#000000" font-family="sans-serif" font-size="14" lengthAdjust="spacing" textLength="109" x="607.5" y="843.8652">personid: string</text><ellipse cx="598.5" cy="856.5624" fill="#000000" rx="3" ry="3" style="stroke:#000000;stroke-width:1.0;"/><text fill="#000000" font-family="sans-serif" font-size="14" lengthAdjust="spacing" textLength="113" x="607.5" y="860.3534">etternavn: string</text><ellipse cx="598.5" cy="873.0507" fill="#000000" rx="3" ry="3" style="stroke:#000000;stroke-width:1.0;"/><text fill="#000000" font-family="sans-serif" font-size="14" lengthAdjust="spacing" textLength="101" x="607.5" y="876.8417">fornavn: string</text><line style="stroke:#181818;stroke-width:0.5;" x1="588.5" x2="725.5" y1="883.7948" y2="883.7948"/></g><!--class KontaktOrganisasjon--><g id="elem_KontaktOrganisasjon"><rect codeLine="78" fill="#F1F1F1" height="64.4883" id="KontaktOrganisasjon" rx="2.5" ry="2.5" style="stroke:#181818;stroke-width:0.5;" width="228" x="762" y="810.81"/><ellipse cx="800.4" cy="826.81" fill="#ADD1B2" rx="11" ry="11" style="stroke:#181818;stroke-width:1.0;"/><path d="M802.8731,832.9531 Q802.2921,833.2519 801.6529,833.4013 Q801.0138,833.5507 800.3082,833.5507 Q797.8014,833.5507 796.4815,831.8989 Q795.1617,830.247 795.1617,827.1259 Q795.1617,823.9965 796.4815,822.3447 Q797.8014,820.6928 800.3082,820.6928 Q801.0138,820.6928 801.6612,820.8422 Q802.3087,820.9916 802.8731,821.2905 L802.8731,824.0131 Q802.2423,823.4321 801.6488,823.1623 Q801.0553,822.8925 800.4244,822.8925 Q799.0797,822.8925 798.3949,823.9592 Q797.7101,825.0258 797.7101,827.1259 Q797.7101,829.2177 798.3949,830.2844 Q799.0797,831.351 800.4244,831.351 Q801.0553,831.351 801.6488,831.0812 Q802.2423,830.8115 802.8731,830.2304 Z " fill="#000000"/><text fill="#000000" font-family="sans-serif" font-size="14" lengthAdjust="spacing" textLength="144" x="819.6" y="832.101">KontaktOrganisasjon</text><line style="stroke:#181818;stroke-width:0.5;" x1="763" x2="989" y1="842.81" y2="842.81"/><ellipse cx="773" cy="856.5541" fill="#000000" rx="3" ry="3" style="stroke:#000000;stroke-width:1.0;"/><text fill="#000000" font-family="sans-serif" font-size="14" lengthAdjust="spacing" textLength="202" x="782" y="860.3452">organisasjonsnummer: string</text><line style="stroke:#181818;stroke-width:0.5;" x1="763" x2="989" y1="867.2983" y2="867.2983"/></g><!--link HentNabolisteResultat to Eiendom--><g id="link_HentNabolisteResultat_Eiendom"><path codeLine="5" d="M167.3,71.95 C197.21,89.42 234.95,111.46 268.44,131.01 " fill="none" id="HentNabolisteResultat-Eiendom" style="stroke:#181818;stroke-width:1.0;stroke-dasharray:7.0,7.0;"/></g><!--link Eiendom to Matrikkelnummer--><g id="link_Eiendom_Matrikkelnummer"><path codeLine="16" d="M273.78,229.24 C254.21,245.58 235.72,265.69 225,288.95 C177.59,391.87 202.48,433.48 228,543.88 C232.65,564 240.72,584.79 249.35,603.47 " fill="none" id="Eiendom-Matrikkelnummer" style="stroke:#181818;stroke-width:1.0;stroke-dasharray:7.0,7.0;"/></g><!--reverse link Eiendom to Adresse--><g id="link_Eiendom_Adresse"><path codeLine="27" d="M354.1359,241.1037 C355.0959,259.4837 355.58,268.8 356.62,288.5 " fill="none" id="Eiendom-backto-Adresse" style="stroke:#181818;stroke-width:1.0;stroke-dasharray:7.0,7.0;"/><polygon fill="#181818" points="353.51,229.12,349.8284,235.3205,354.1359,241.1037,357.8175,234.9032,353.51,229.12" style="stroke:#181818;stroke-width:1.0;"/></g><!--reverse link Eiendom to Eier--><g id="link_Eiendom_Eier"><path codeLine="28" d="M439.5952,235.6305 C482.6252,262.0605 525.14,288.17 565.89,313.19 " fill="none" id="Eiendom-backto-Eier" style="stroke:#181818;stroke-width:1.0;stroke-dasharray:7.0,7.0;"/><polygon fill="#181818" points="429.37,229.35,432.3891,235.8987,439.5952,235.6305,436.5761,229.0819,429.37,229.35" style="stroke:#181818;stroke-width:1.0;"/></g><!--reverse link Eier to KontaktEier--><g id="link_Eier_KontaktEier"><path d="M631,412.81 C631,438.9 631,454.59 631,478.91 " fill="none" id="Eier-backto-KontaktEier" style="stroke:#181818;stroke-width:1.0;"/><polygon fill="none" points="631,394.81,625,412.81,637,412.81,631,394.81" style="stroke:#181818;stroke-width:1.0;"/></g><!--reverse link Eier to MatrikkelEier--><g id="link_Eier_MatrikkelEier"><path d="M552.4765,404.5985 C511.0265,430.6885 472.83,454.73 434.29,478.99 " fill="none" id="Eier-backto-MatrikkelEier" style="stroke:#181818;stroke-width:1.0;"/><polygon fill="none" points="567.71,395.01,549.2803,399.5206,555.6726,409.6763,567.71,395.01" style="stroke:#181818;stroke-width:1.0;"/></g><!--link KontaktEier to Kontakt--><g id="link_KontaktEier_Kontakt"><path codeLine="52" d="M658.52,544.1 C682.04,570.98 715.71,609.48 739.29,636.42 " fill="none" id="KontaktEier-Kontakt" style="stroke:#181818;stroke-width:1.0;stroke-dasharray:7.0,7.0;"/></g><!--link MatrikkelEier to Matrikkelnummer--><g id="link_MatrikkelEier_Matrikkelnummer"><path codeLine="58" d="M363.97,544.1 C353.06,561.22 339.16,583.06 326.06,603.62 " fill="none" id="MatrikkelEier-Matrikkelnummer" style="stroke:#181818;stroke-width:1.0;stroke-dasharray:7.0,7.0;"/></g><!--reverse link Kontakt to KontaktPerson--><g id="link_Kontakt_KontaktPerson"><path d="M737.121,716.8034 C720.561,742.6934 706.55,764.6 687.64,794.16 " fill="none" id="Kontakt-backto-KontaktPerson" style="stroke:#181818;stroke-width:1.0;"/><polygon fill="none" points="746.82,701.64,732.0665,713.5704,742.1755,720.0364,746.82,701.64" style="stroke:#181818;stroke-width:1.0;"/></g><!--reverse link Kontakt to KontaktOrganisasjon--><g id="link_Kontakt_KontaktOrganisasjon"><path d="M796.6283,716.8421 C816.2383,747.7721 836.32,779.47 855.95,810.43 " fill="none" id="Kontakt-backto-KontaktOrganisasjon" style="stroke:#181818;stroke-width:1.0;"/><polygon fill="none" points="786.99,701.64,791.5609,720.0548,801.6957,713.6293,786.99,701.64" style="stroke:#181818;stroke-width:1.0;"/></g><!--SRC=[XLFDQjmm4BxxAOOzxc6XFPeG2AIbPTCav5foq4QphY9vP2JjabBsTVeCkU-BTInBZkKuTC6ivk_xvlV92E_X6rAu5Jjhb0_uWFvWWWZmfmB-4UjH8KdRjkXg-3AyVpvMfwfQ3jniibTLFKM292R8DRGYEAKr6ZeCg3zAHNHZLeUHq35RqlGmGZhqlW-x6bv3CcG3Gh0TsFr8s2CJQFwEQ1e4LhKid5_9QtImYXmhi4ryJi5NeC2bYZ10Yn8wuKIBWUCKt7o_tKBofKrLLPcHYvyNavemK-TcQ6xiWJ1tmhCJDOEf4S99dosA0ZQfD-kTE-X5onvv54i6Zze_MteNT9eal-RiKqyBNJ-3N4Qof_HJ2yBl3iTnzCB5nTPAlBoSEXb5p_YfA75g-LnOEkj3ijPm_oOKm4QGr2pMS9DUe_aqsRsnr_suzzRziaOEYvM40dJDK6YuclvlYZTRC0S51kXu8R1tucs_Sn9RIq7e4AFmXGSaXyJcg_7UOG5WN9oeghEjJt7gndFBbaMQ1FFVMsJOCl3Z5Kzy6Ph4aSQXpXgONMkuHYA4tVdLmV7yro4OfS7pvaaHHClTDmQ9J-whqhnzJglZZEuUdRUKIRieALcU4WQ-soAVgERPpPCiiUzS8qXvqPzEPh0JdP_TxMavjppIF92FEUQU_m00]--></g></svg>