<svg xmlns="http://www.w3.org/2000/svg" xmlns:xlink="http://www.w3.org/1999/xlink" contentStyleType="text/css" height="1023px" preserveAspectRatio="none" style="width:765px;height:1023px;background:#FFFFFF;" version="1.1" viewBox="0 0 765 1023" width="765px" zoomAndPan="magnify"><defs/><g><!--class HentNabolisteResultat--><g id="elem_HentNabolisteResultat"><rect codeLine="1" fill="#F1F1F1" height="80.9766" id="HentNabolisteResultat" rx="2.5" ry="2.5" style="stroke:#181818;stroke-width:0.5;" width="262" x="392.5" y="7"/><ellipse cx="443.75" cy="23" fill="#ADD1B2" rx="11" ry="11" style="stroke:#181818;stroke-width:1.0;"/><path d="M446.2231,29.1431 Q445.6421,29.4419 445.0029,29.5913 Q444.3638,29.7407 443.6582,29.7407 Q441.1514,29.7407 439.8315,28.0889 Q438.5117,26.437 438.5117,23.3159 Q438.5117,20.1865 439.8315,18.5347 Q441.1514,16.8828 443.6582,16.8828 Q444.3638,16.8828 445.0112,17.0322 Q445.6587,17.1816 446.2231,17.4805 L446.2231,20.2031 Q445.5923,19.6221 444.9988,19.3523 Q444.4053,19.0825 443.7744,19.0825 Q442.4297,19.0825 441.7449,20.1492 Q441.0601,21.2158 441.0601,23.3159 Q441.0601,25.4077 441.7449,26.4744 Q442.4297,27.541 443.7744,27.541 Q444.4053,27.541 444.9988,27.2712 Q445.5923,27.0015 446.2231,26.4204 Z " fill="#000000"/><text fill="#000000" font-family="sans-serif" font-size="14" lengthAdjust="spacing" textLength="151" x="464.25" y="28.291">HentNabolisteResultat</text><line style="stroke:#181818;stroke-width:0.5;" x1="393.5" x2="653.5" y1="39" y2="39"/><ellipse cx="403.5" cy="52.7441" fill="none" rx="3" ry="3" style="stroke:#038048;stroke-width:1.0;"/><text fill="#000000" font-family="sans-serif" font-size="14" lengthAdjust="spacing" textLength="170" x="412.5" y="56.5352">hovedeiendom: Eiendom</text><ellipse cx="403.5" cy="69.2324" fill="none" rx="3" ry="3" style="stroke:#038048;stroke-width:1.0;"/><text fill="#000000" font-family="sans-serif" font-size="14" lengthAdjust="spacing" textLength="236" x="412.5" y="73.0234">naboeiendommer: Naboeiendom[]</text><line style="stroke:#181818;stroke-width:0.5;" x1="393.5" x2="653.5" y1="79.9766" y2="79.9766"/></g><!--class Eiendom--><g id="elem_Eiendom"><rect codeLine="9" fill="#F1F1F1" height="64.4883" id="Eiendom" rx="2.5" ry="2.5" style="stroke:#181818;stroke-width:0.5;" width="277" x="481" y="147.98"/><ellipse cx="585.25" cy="163.98" fill="#ADD1B2" rx="11" ry="11" style="stroke:#181818;stroke-width:1.0;"/><path d="M587.7231,170.1231 Q587.1421,170.4219 586.5029,170.5713 Q585.8638,170.7207 585.1582,170.7207 Q582.6514,170.7207 581.3315,169.0689 Q580.0117,167.417 580.0117,164.2959 Q580.0117,161.1665 581.3315,159.5147 Q582.6514,157.8628 585.1582,157.8628 Q585.8638,157.8628 586.5112,158.0122 Q587.1587,158.1616 587.7231,158.4605 L587.7231,161.1831 Q587.0923,160.6021 586.4988,160.3323 Q585.9053,160.0625 585.2744,160.0625 Q583.9297,160.0625 583.2449,161.1292 Q582.5601,162.1958 582.5601,164.2959 Q582.5601,166.3877 583.2449,167.4544 Q583.9297,168.521 585.2744,168.521 Q585.9053,168.521 586.4988,168.2512 Q587.0923,167.9815 587.7231,167.4004 Z " fill="#000000"/><text fill="#000000" font-family="sans-serif" font-size="14" lengthAdjust="spacing" textLength="60" x="605.75" y="169.271">Eiendom</text><line style="stroke:#181818;stroke-width:0.5;" x1="482" x2="757" y1="179.98" y2="179.98"/><ellipse cx="492" cy="193.7241" fill="none" rx="3" ry="3" style="stroke:#038048;stroke-width:1.0;"/><text fill="#000000" font-family="sans-serif" font-size="14" lengthAdjust="spacing" textLength="251" x="501" y="197.5152">matrikkelnummer: Matrikkelnummer</text><line style="stroke:#181818;stroke-width:0.5;" x1="482" x2="757" y1="204.4683" y2="204.4683"/></g><!--class Naboeiendom--><g id="elem_Naboeiendom"><rect codeLine="28" fill="#F1F1F1" height="80.9766" id="Naboeiendom" rx="2.5" ry="2.5" style="stroke:#181818;stroke-width:0.5;" width="218" x="319.5" y="272.47"/><ellipse cx="376.25" cy="288.47" fill="#ADD1B2" rx="11" ry="11" style="stroke:#181818;stroke-width:1.0;"/><path d="M378.7231,294.6131 Q378.1421,294.9119 377.5029,295.0613 Q376.8638,295.2107 376.1582,295.2107 Q373.6514,295.2107 372.3315,293.5589 Q371.0117,291.907 371.0117,288.7859 Q371.0117,285.6565 372.3315,284.0047 Q373.6514,282.3528 376.1582,282.3528 Q376.8638,282.3528 377.5112,282.5022 Q378.1587,282.6516 378.7231,282.9505 L378.7231,285.6731 Q378.0923,285.0921 377.4988,284.8223 Q376.9053,284.5525 376.2744,284.5525 Q374.9297,284.5525 374.2449,285.6192 Q373.5601,286.6858 373.5601,288.7859 Q373.5601,290.8777 374.2449,291.9444 Q374.9297,293.011 376.2744,293.011 Q376.9053,293.011 377.4988,292.7412 Q378.0923,292.4715 378.7231,291.8904 Z " fill="#000000"/><text fill="#000000" font-family="sans-serif" font-size="14" lengthAdjust="spacing" textLength="96" x="396.75" y="293.761">Naboeiendom</text><line style="stroke:#181818;stroke-width:0.5;" x1="320.5" x2="536.5" y1="304.47" y2="304.47"/><ellipse cx="330.5" cy="318.2141" fill="none" rx="3" ry="3" style="stroke:#038048;stroke-width:1.0;"/><text fill="#000000" font-family="sans-serif" font-size="14" lengthAdjust="spacing" textLength="78" x="339.5" y="322.0052">eiere: Eier[]</text><ellipse cx="330.5" cy="334.7024" fill="none" rx="3" ry="3" style="stroke:#038048;stroke-width:1.0;"/><text fill="#000000" font-family="sans-serif" font-size="14" lengthAdjust="spacing" textLength="192" x="339.5" y="338.4934">eiendomadresser: Adresse[]</text><line style="stroke:#181818;stroke-width:0.5;" x1="320.5" x2="536.5" y1="345.4466" y2="345.4466"/></g><!--class Matrikkelnummer--><g id="elem_Matrikkelnummer"><rect codeLine="15" fill="#F1F1F1" height="130.4414" id="Matrikkelnummer" rx="2.5" ry="2.5" style="stroke:#181818;stroke-width:0.5;" width="201" x="423" y="728.37"/><ellipse cx="459.6" cy="744.37" fill="#ADD1B2" rx="11" ry="11" style="stroke:#181818;stroke-width:1.0;"/><path d="M462.0731,750.5131 Q461.4921,750.8119 460.8529,750.9613 Q460.2138,751.1107 459.5082,751.1107 Q457.0014,751.1107 455.6815,749.4589 Q454.3617,747.807 454.3617,744.6859 Q454.3617,741.5565 455.6815,739.9047 Q457.0014,738.2528 459.5082,738.2528 Q460.2138,738.2528 460.8612,738.4022 Q461.5087,738.5516 462.0731,738.8505 L462.0731,741.5731 Q461.4423,740.9921 460.8488,740.7223 Q460.2553,740.4525 459.6244,740.4525 Q458.2797,740.4525 457.5949,741.5192 Q456.9101,742.5858 456.9101,744.6859 Q456.9101,746.7777 457.5949,747.8444 Q458.2797,748.911 459.6244,748.911 Q460.2553,748.911 460.8488,748.6412 Q461.4423,748.3715 462.0731,747.7904 Z " fill="#000000"/><text fill="#000000" font-family="sans-serif" font-size="14" lengthAdjust="spacing" textLength="121" x="478.4" y="749.661">Matrikkelnummer</text><line style="stroke:#181818;stroke-width:0.5;" x1="424" x2="623" y1="760.37" y2="760.37"/><ellipse cx="434" cy="774.1141" fill="none" rx="3" ry="3" style="stroke:#038048;stroke-width:1.0;"/><text fill="#000000" font-family="sans-serif" font-size="14" lengthAdjust="spacing" textLength="175" x="443" y="777.9052">kommunenummer: string</text><ellipse cx="434" cy="790.6024" fill="none" rx="3" ry="3" style="stroke:#038048;stroke-width:1.0;"/><text fill="#000000" font-family="sans-serif" font-size="14" lengthAdjust="spacing" textLength="162" x="443" y="794.3934">gaardsnummer: integer</text><ellipse cx="434" cy="807.0907" fill="none" rx="3" ry="3" style="stroke:#038048;stroke-width:1.0;"/><text fill="#000000" font-family="sans-serif" font-size="14" lengthAdjust="spacing" textLength="154" x="443" y="810.8817">bruksnummer: integer</text><ellipse cx="434" cy="823.579" fill="none" rx="3" ry="3" style="stroke:#038048;stroke-width:1.0;"/><text fill="#000000" font-family="sans-serif" font-size="14" lengthAdjust="spacing" textLength="148" x="443" y="827.37">festenummer: integer</text><ellipse cx="434" cy="840.0673" fill="none" rx="3" ry="3" style="stroke:#038048;stroke-width:1.0;"/><text fill="#000000" font-family="sans-serif" font-size="14" lengthAdjust="spacing" textLength="174" x="443" y="843.8583">seksjonsnummer: integer</text><line style="stroke:#181818;stroke-width:0.5;" x1="424" x2="623" y1="850.8114" y2="850.8114"/></g><!--class Adresse--><g id="elem_Adresse"><rect codeLine="33" fill="#F1F1F1" height="130.4414" id="Adresse" rx="2.5" ry="2.5" style="stroke:#181818;stroke-width:0.5;" width="249" x="26" y="413.44"/><ellipse cx="118.75" cy="429.44" fill="#ADD1B2" rx="11" ry="11" style="stroke:#181818;stroke-width:1.0;"/><path d="M121.2231,435.5831 Q120.6421,435.8819 120.0029,436.0313 Q119.3638,436.1807 118.6582,436.1807 Q116.1514,436.1807 114.8315,434.5289 Q113.5117,432.877 113.5117,429.7559 Q113.5117,426.6265 114.8315,424.9747 Q116.1514,423.3228 118.6582,423.3228 Q119.3638,423.3228 120.0112,423.4722 Q120.6587,423.6216 121.2231,423.9205 L121.2231,426.6431 Q120.5923,426.0621 119.9988,425.7923 Q119.4053,425.5225 118.7744,425.5225 Q117.4297,425.5225 116.7449,426.5892 Q116.0601,427.6558 116.0601,429.7559 Q116.0601,431.8477 116.7449,432.9144 Q117.4297,433.981 118.7744,433.981 Q119.4053,433.981 119.9988,433.7112 Q120.5923,433.4415 121.2231,432.8604 Z " fill="#000000"/><text fill="#000000" font-family="sans-serif" font-size="14" lengthAdjust="spacing" textLength="55" x="139.25" y="434.731">Adresse</text><line style="stroke:#181818;stroke-width:0.5;" x1="27" x2="274" y1="445.44" y2="445.44"/><ellipse cx="37" cy="459.1841" fill="none" rx="3" ry="3" style="stroke:#038048;stroke-width:1.0;"/><text fill="#000000" font-family="sans-serif" font-size="14" lengthAdjust="spacing" textLength="223" x="46" y="462.9752">adressetype: Adressetype&#171;Kode&#187;</text><ellipse cx="37" cy="475.6724" fill="none" rx="3" ry="3" style="stroke:#038048;stroke-width:1.0;"/><text fill="#000000" font-family="sans-serif" font-size="14" lengthAdjust="spacing" textLength="139" x="46" y="479.4634">adresselinje1: string</text><ellipse cx="37" cy="492.1607" fill="none" rx="3" ry="3" style="stroke:#038048;stroke-width:1.0;"/><text fill="#000000" font-family="sans-serif" font-size="14" lengthAdjust="spacing" textLength="139" x="46" y="495.9517">adresselinje2: string</text><ellipse cx="37" cy="508.649" fill="none" rx="3" ry="3" style="stroke:#038048;stroke-width:1.0;"/><text fill="#000000" font-family="sans-serif" font-size="14" lengthAdjust="spacing" textLength="222" x="46" y="512.44">postadresse: Postadresse&#171;Kode&#187;</text><ellipse cx="37" cy="525.1373" fill="none" rx="3" ry="3" style="stroke:#038048;stroke-width:1.0;"/><text fill="#000000" font-family="sans-serif" font-size="14" lengthAdjust="spacing" textLength="188" x="46" y="528.9283">landkode: Landkode&#171;Kode&#187;</text><line style="stroke:#181818;stroke-width:0.5;" x1="27" x2="274" y1="535.8814" y2="535.8814"/></g><!--class Eier--><g id="elem_Eier"><rect codeLine="41" fill="#F1F1F1" height="80.9766" id="Eier" rx="2.5" ry="2.5" style="stroke:#181818;stroke-width:0.5;" width="237" x="310" y="438.18"/><ellipse cx="411.25" cy="454.18" fill="#ADD1B2" rx="11" ry="11" style="stroke:#181818;stroke-width:1.0;"/><path d="M413.7231,460.3231 Q413.1421,460.6219 412.5029,460.7713 Q411.8638,460.9207 411.1582,460.9207 Q408.6514,460.9207 407.3315,459.2689 Q406.0117,457.617 406.0117,454.4959 Q406.0117,451.3665 407.3315,449.7147 Q408.6514,448.0628 411.1582,448.0628 Q411.8638,448.0628 412.5112,448.2122 Q413.1587,448.3616 413.7231,448.6605 L413.7231,451.3831 Q413.0923,450.8021 412.4988,450.5323 Q411.9053,450.2625 411.2744,450.2625 Q409.9297,450.2625 409.2449,451.3292 Q408.5601,452.3958 408.5601,454.4959 Q408.5601,456.5877 409.2449,457.6544 Q409.9297,458.721 411.2744,458.721 Q411.9053,458.721 412.4988,458.4512 Q413.0923,458.1815 413.7231,457.6004 Z " fill="#000000"/><text fill="#000000" font-family="sans-serif" font-size="14" lengthAdjust="spacing" textLength="26" x="431.75" y="459.471">Eier</text><line style="stroke:#181818;stroke-width:0.5;" x1="311" x2="546" y1="470.18" y2="470.18"/><ellipse cx="321" cy="483.9241" fill="none" rx="3" ry="3" style="stroke:#038048;stroke-width:1.0;"/><text fill="#000000" font-family="sans-serif" font-size="14" lengthAdjust="spacing" textLength="211" x="330" y="487.7152">eierforhold: Eierforhold&#171;Kode&#187;</text><ellipse cx="321" cy="500.4124" fill="none" rx="3" ry="3" style="stroke:#038048;stroke-width:1.0;"/><text fill="#000000" font-family="sans-serif" font-size="14" lengthAdjust="spacing" textLength="135" x="330" y="504.2034">andel: Andel&#171;Kode&#187;</text><line style="stroke:#181818;stroke-width:0.5;" x1="311" x2="546" y1="511.1566" y2="511.1566"/></g><!--class KontaktEier--><g id="elem_KontaktEier"><rect codeLine="49" fill="#F1F1F1" height="64.4883" id="KontaktEier" rx="2.5" ry="2.5" style="stroke:#181818;stroke-width:0.5;" width="139" x="116" y="603.89"/><ellipse cx="143.6" cy="619.89" fill="#ADD1B2" rx="11" ry="11" style="stroke:#181818;stroke-width:1.0;"/><path d="M146.0731,626.0331 Q145.4921,626.3319 144.8529,626.4813 Q144.2138,626.6307 143.5082,626.6307 Q141.0014,626.6307 139.6815,624.9789 Q138.3617,623.327 138.3617,620.2059 Q138.3617,617.0765 139.6815,615.4247 Q141.0014,613.7728 143.5082,613.7728 Q144.2138,613.7728 144.8612,613.9222 Q145.5087,614.0716 146.0731,614.3705 L146.0731,617.0931 Q145.4423,616.5121 144.8488,616.2423 Q144.2553,615.9725 143.6244,615.9725 Q142.2797,615.9725 141.5949,617.0392 Q140.9101,618.1058 140.9101,620.2059 Q140.9101,622.2977 141.5949,623.3644 Q142.2797,624.431 143.6244,624.431 Q144.2553,624.431 144.8488,624.1612 Q145.4423,623.8915 146.0731,623.3104 Z " fill="#000000"/><text fill="#000000" font-family="sans-serif" font-size="14" lengthAdjust="spacing" textLength="79" x="160.4" y="625.181">KontaktEier</text><line style="stroke:#181818;stroke-width:0.5;" x1="117" x2="254" y1="635.89" y2="635.89"/><ellipse cx="127" cy="649.6341" fill="none" rx="3" ry="3" style="stroke:#038048;stroke-width:1.0;"/><text fill="#000000" font-family="sans-serif" font-size="14" lengthAdjust="spacing" textLength="113" x="136" y="653.4252">kontakt: Kontakt</text><line style="stroke:#181818;stroke-width:0.5;" x1="117" x2="254" y1="660.3783" y2="660.3783"/></g><!--class MatrikkelEier--><g id="elem_MatrikkelEier"><rect codeLine="55" fill="#F1F1F1" height="64.4883" id="MatrikkelEier" rx="2.5" ry="2.5" style="stroke:#181818;stroke-width:0.5;" width="277" x="290" y="603.89"/><ellipse cx="379.75" cy="619.89" fill="#ADD1B2" rx="11" ry="11" style="stroke:#181818;stroke-width:1.0;"/><path d="M382.2231,626.0331 Q381.6421,626.3319 381.0029,626.4813 Q380.3638,626.6307 379.6582,626.6307 Q377.1514,626.6307 375.8315,624.9789 Q374.5117,623.327 374.5117,620.2059 Q374.5117,617.0765 375.8315,615.4247 Q377.1514,613.7728 379.6582,613.7728 Q380.3638,613.7728 381.0112,613.9222 Q381.6587,614.0716 382.2231,614.3705 L382.2231,617.0931 Q381.5923,616.5121 380.9988,616.2423 Q380.4053,615.9725 379.7744,615.9725 Q378.4297,615.9725 377.7449,617.0392 Q377.0601,618.1058 377.0601,620.2059 Q377.0601,622.2977 377.7449,623.3644 Q378.4297,624.431 379.7744,624.431 Q380.4053,624.431 380.9988,624.1612 Q381.5923,623.8915 382.2231,623.3104 Z " fill="#000000"/><text fill="#000000" font-family="sans-serif" font-size="14" lengthAdjust="spacing" textLength="89" x="400.25" y="625.181">MatrikkelEier</text><line style="stroke:#181818;stroke-width:0.5;" x1="291" x2="566" y1="635.89" y2="635.89"/><ellipse cx="301" cy="649.6341" fill="none" rx="3" ry="3" style="stroke:#038048;stroke-width:1.0;"/><text fill="#000000" font-family="sans-serif" font-size="14" lengthAdjust="spacing" textLength="251" x="310" y="653.4252">matrikkelnummer: Matrikkelnummer</text><line style="stroke:#181818;stroke-width:0.5;" x1="291" x2="566" y1="660.3783" y2="660.3783"/></g><!--class Kontakt--><g id="elem_Kontakt"><rect codeLine="61" fill="#F1F1F1" height="64.4883" id="Kontakt" rx="2.5" ry="2.5" style="stroke:#181818;stroke-width:0.5;" width="107" x="132" y="761.35"/><ellipse cx="156.9" cy="777.35" fill="#ADD1B2" rx="11" ry="11" style="stroke:#181818;stroke-width:1.0;"/><path d="M159.3731,783.4931 Q158.7921,783.7919 158.1529,783.9413 Q157.5138,784.0907 156.8082,784.0907 Q154.3014,784.0907 152.9815,782.4389 Q151.6617,780.787 151.6617,777.6659 Q151.6617,774.5365 152.9815,772.8847 Q154.3014,771.2328 156.8082,771.2328 Q157.5138,771.2328 158.1612,771.3822 Q158.8087,771.5316 159.3731,771.8305 L159.3731,774.5531 Q158.7423,773.9721 158.1488,773.7023 Q157.5553,773.4325 156.9244,773.4325 Q155.5797,773.4325 154.8949,774.4992 Q154.2101,775.5658 154.2101,777.6659 Q154.2101,779.7577 154.8949,780.8244 Q155.5797,781.891 156.9244,781.891 Q157.5553,781.891 158.1488,781.6212 Q158.7423,781.3515 159.3731,780.7704 Z " fill="#000000"/><text fill="#000000" font-family="sans-serif" font-size="14" lengthAdjust="spacing" textLength="53" x="173.1" y="782.641">Kontakt</text><line style="stroke:#181818;stroke-width:0.5;" x1="133" x2="238" y1="793.35" y2="793.35"/><ellipse cx="143" cy="807.0941" fill="none" rx="3" ry="3" style="stroke:#038048;stroke-width:1.0;"/><text fill="#000000" font-family="sans-serif" font-size="14" lengthAdjust="spacing" textLength="81" x="152" y="810.8852">navn: string</text><line style="stroke:#181818;stroke-width:0.5;" x1="133" x2="238" y1="817.8383" y2="817.8383"/></g><!--class KontaktPerson--><g id="elem_KontaktPerson"><rect codeLine="75" fill="#F1F1F1" height="97.4648" id="KontaktPerson" rx="2.5" ry="2.5" style="stroke:#181818;stroke-width:0.5;" width="139" x="7" y="918.82"/><ellipse cx="25.15" cy="934.82" fill="#ADD1B2" rx="11" ry="11" style="stroke:#181818;stroke-width:1.0;"/><path d="M27.6231,940.9631 Q27.0421,941.2619 26.4029,941.4113 Q25.7638,941.5607 25.0582,941.5607 Q22.5514,941.5607 21.2315,939.9089 Q19.9117,938.257 19.9117,935.1359 Q19.9117,932.0065 21.2315,930.3547 Q22.5514,928.7028 25.0582,928.7028 Q25.7638,928.7028 26.4112,928.8522 Q27.0587,929.0016 27.6231,929.3005 L27.6231,932.0231 Q26.9923,931.4421 26.3988,931.1723 Q25.8053,930.9025 25.1744,930.9025 Q23.8297,930.9025 23.1449,931.9692 Q22.4601,933.0358 22.4601,935.1359 Q22.4601,937.2277 23.1449,938.2944 Q23.8297,939.361 25.1744,939.361 Q25.8053,939.361 26.3988,939.0912 Q26.9923,938.8215 27.6231,938.2404 Z " fill="#000000"/><text fill="#000000" font-family="sans-serif" font-size="14" lengthAdjust="spacing" textLength="100" x="39.85" y="940.111">KontaktPerson</text><line style="stroke:#181818;stroke-width:0.5;" x1="8" x2="145" y1="950.82" y2="950.82"/><ellipse cx="18" cy="964.5641" fill="none" rx="3" ry="3" style="stroke:#038048;stroke-width:1.0;"/><text fill="#000000" font-family="sans-serif" font-size="14" lengthAdjust="spacing" textLength="109" x="27" y="968.3552">personid: string</text><ellipse cx="18" cy="981.0524" fill="none" rx="3" ry="3" style="stroke:#038048;stroke-width:1.0;"/><text fill="#000000" font-family="sans-serif" font-size="14" lengthAdjust="spacing" textLength="113" x="27" y="984.8434">etternavn: string</text><ellipse cx="18" cy="997.5407" fill="none" rx="3" ry="3" style="stroke:#038048;stroke-width:1.0;"/><text fill="#000000" font-family="sans-serif" font-size="14" lengthAdjust="spacing" textLength="101" x="27" y="1001.3317">fornavn: string</text><line style="stroke:#181818;stroke-width:0.5;" x1="8" x2="145" y1="1008.2848" y2="1008.2848"/></g><!--class KontaktOrganisasjon--><g id="elem_KontaktOrganisasjon"><rect codeLine="76" fill="#F1F1F1" height="64.4883" id="KontaktOrganisasjon" rx="2.5" ry="2.5" style="stroke:#181818;stroke-width:0.5;" width="228" x="181.5" y="935.3"/><ellipse cx="219.9" cy="951.3" fill="#ADD1B2" rx="11" ry="11" style="stroke:#181818;stroke-width:1.0;"/><path d="M222.3731,957.4431 Q221.7921,957.7419 221.1529,957.8913 Q220.5138,958.0407 219.8082,958.0407 Q217.3014,958.0407 215.9815,956.3889 Q214.6617,954.737 214.6617,951.6159 Q214.6617,948.4865 215.9815,946.8347 Q217.3014,945.1828 219.8082,945.1828 Q220.5138,945.1828 221.1612,945.3322 Q221.8087,945.4816 222.3731,945.7805 L222.3731,948.5031 Q221.7423,947.9221 221.1488,947.6523 Q220.5553,947.3825 219.9244,947.3825 Q218.5797,947.3825 217.8949,948.4492 Q217.2101,949.5158 217.2101,951.6159 Q217.2101,953.7077 217.8949,954.7744 Q218.5797,955.841 219.9244,955.841 Q220.5553,955.841 221.1488,955.5712 Q221.7423,955.3015 222.3731,954.7204 Z " fill="#000000"/><text fill="#000000" font-family="sans-serif" font-size="14" lengthAdjust="spacing" textLength="144" x="239.1" y="956.591">KontaktOrganisasjon</text><line style="stroke:#181818;stroke-width:0.5;" x1="182.5" x2="408.5" y1="967.3" y2="967.3"/><ellipse cx="192.5" cy="981.0441" fill="none" rx="3" ry="3" style="stroke:#038048;stroke-width:1.0;"/><text fill="#000000" font-family="sans-serif" font-size="14" lengthAdjust="spacing" textLength="202" x="201.5" y="984.8352">organisasjonsnummer: string</text><line style="stroke:#181818;stroke-width:0.5;" x1="182.5" x2="408.5" y1="991.7883" y2="991.7883"/></g><!--link HentNabolisteResultat to Eiendom--><g id="link_HentNabolisteResultat_Eiendom"><path codeLine="6" d="M552.82,88.43 C566.83,107.5 583.35,129.99 596.44,147.82 " fill="none" id="HentNabolisteResultat-Eiendom" style="stroke:#181818;stroke-width:1.0;stroke-dasharray:7.0,7.0;"/></g><!--reverse link HentNabolisteResultat to Naboeiendom--><g id="link_HentNabolisteResultat_Naboeiendom"><path codeLine="7" d="M488.9747,98.1337 C477.5947,115.7737 471.73,127.16 463.5,147.98 C447.39,188.72 438.13,238.23 433.23,272.12 " fill="none" id="HentNabolisteResultat-backto-Naboeiendom" style="stroke:#181818;stroke-width:1.0;stroke-dasharray:7.0,7.0;"/><polygon fill="#181818" points="495.48,88.05,488.8661,90.9234,488.9747,98.1337,495.5886,95.2603,495.48,88.05" style="stroke:#181818;stroke-width:1.0;"/></g><!--link Eiendom to Matrikkelnummer--><g id="link_Eiendom_Matrikkelnummer"><path codeLine="13" d="M621.34,212.69 C625.07,291.19 629.65,501.39 584.5,668.37 C579.04,688.55 570.25,709.36 561.02,728.04 " fill="none" id="Eiendom-Matrikkelnummer" style="stroke:#181818;stroke-width:1.0;stroke-dasharray:7.0,7.0;"/></g><!--reverse link Eiendom to Naboeiendom--><g id="link_Eiendom_Naboeiendom"><path d="M558.4061,223.0368 C532.3561,240.8668 514.42,253.15 486.63,272.17 " fill="none" id="Eiendom-backto-Naboeiendom" style="stroke:#181818;stroke-width:1.0;"/><polygon fill="none" points="573.26,212.87,555.0172,218.0855,561.7951,227.988,573.26,212.87" style="stroke:#181818;stroke-width:1.0;"/></g><!--reverse link Naboeiendom to Adresse--><g id="link_Naboeiendom_Adresse"><path codeLine="30" d="M350.5103,359.8802 C320.2903,377.6802 294.25,393.01 260.3,413.01 " fill="none" id="Naboeiendom-backto-Adresse" style="stroke:#181818;stroke-width:1.0;stroke-dasharray:7.0,7.0;"/><polygon fill="#181818" points="360.85,353.79,353.6501,353.3885,350.5103,359.8802,357.7102,360.2817,360.85,353.79" style="stroke:#181818;stroke-width:1.0;"/></g><!--reverse link Naboeiendom to Eier--><g id="link_Naboeiendom_Eier"><path codeLine="31" d="M428.5,365.59 C428.5,391.14 428.5,412.24 428.5,437.83 " fill="none" id="Naboeiendom-backto-Eier" style="stroke:#181818;stroke-width:1.0;stroke-dasharray:7.0,7.0;"/><polygon fill="#181818" points="428.5,353.59,424.5,359.59,428.5,365.59,432.5,359.59,428.5,353.59" style="stroke:#181818;stroke-width:1.0;"/></g><!--reverse link Eier to KontaktEier--><g id="link_Eier_KontaktEier"><path d="M351.0776,529.2005 C310.2976,555.2905 272.89,579.22 234.97,603.48 " fill="none" id="Eier-backto-KontaktEier" style="stroke:#181818;stroke-width:1.0;"/><polygon fill="none" points="366.24,519.5,347.844,524.1464,354.3111,534.2547,366.24,519.5" style="stroke:#181818;stroke-width:1.0;"/></g><!--reverse link Eier to MatrikkelEier--><g id="link_Eier_MatrikkelEier"><path d="M428.5,537.3 C428.5,563.39 428.5,579.08 428.5,603.4 " fill="none" id="Eier-backto-MatrikkelEier" style="stroke:#181818;stroke-width:1.0;"/><polygon fill="none" points="428.5,519.3,422.5,537.3,434.5,537.3,428.5,519.3" style="stroke:#181818;stroke-width:1.0;"/></g><!--link KontaktEier to Kontakt--><g id="link_KontaktEier_Kontakt"><path codeLine="53" d="M185.5,668.59 C185.5,695.47 185.5,733.97 185.5,760.91 " fill="none" id="KontaktEier-Kontakt" style="stroke:#181818;stroke-width:1.0;"/></g><!--link MatrikkelEier to Matrikkelnummer--><g id="link_MatrikkelEier_Matrikkelnummer"><path codeLine="59" d="M447.72,668.59 C458.19,685.71 471.53,707.55 484.09,728.11 " fill="none" id="MatrikkelEier-Matrikkelnummer" style="stroke:#181818;stroke-width:1.0;"/></g><!--reverse link Kontakt to KontaktPerson--><g id="link_Kontakt_KontaktPerson"><path d="M155.8736,841.3333 C139.4636,867.2233 125.6,889.09 106.86,918.65 " fill="none" id="Kontakt-backto-KontaktPerson" style="stroke:#181818;stroke-width:1.0;"/><polygon fill="none" points="165.51,826.13,150.8059,838.1212,160.9414,844.5454,165.51,826.13" style="stroke:#181818;stroke-width:1.0;"/></g><!--reverse link Kontakt to KontaktOrganisasjon--><g id="link_Kontakt_KontaktOrganisasjon"><path d="M215.3777,841.2943 C235.1577,872.2243 255.46,903.96 275.27,934.92 " fill="none" id="Kontakt-backto-KontaktOrganisasjon" style="stroke:#181818;stroke-width:1.0;"/><polygon fill="none" points="205.68,826.13,210.3229,844.5268,220.4324,838.0617,205.68,826.13" style="stroke:#181818;stroke-width:1.0;"/></g><!--SRC=[bLF1JiCm3BtdAte6RH8SgsaI1oGaO4nS4OTiyRQkcJCbwGH2-tUI9kwIjaEYbyP-py-E7QybDwPu0hGBlbAoCXRUmJJISblyiC9zjpjr0W4Le527idWCXm2XYud80NHPB2xsnoSxCpOkF9rsCkE46yT8j1XRjsN682himAskwXeaDY7zQ-xm1L284-oZKRJd9l7QNQb186dZIBWDq9PpBGmX5LhOEhaMMkcc7aSsu2uuYXYepLxX8EnC5IQTeEgSgQ4TXdQD9fTdSA716A_p44vX44Cb-7BrYAwfZAMW7q2C7_XzKXAC72eh9hVVH-ZoUsCsUrO2vlEC9IlSmrtUsXIwpw6ZCZR2PR6y6Bcsv2XgPvV5Ipnr-3bvHZfjv4RfdP8Yj3CQlOfHW7Gtyh-XthD2oslRoYPTrVq7DYIC27JFhtMLXFbiAMqowP3HDFzOaJpG2LzPb9YFf96Vi9jGlnTBq4OXKO-jLObye60jw4mbB8hIVqg_wIt7od2_CvH09JxJMzahfT4Sg8lNS_IPlm00]--></g></svg>