<svg xmlns="http://www.w3.org/2000/svg" xmlns:xlink="http://www.w3.org/1999/xlink" contentStyleType="text/css" height="101px" preserveAspectRatio="none" style="width:178px;height:101px;background:#FFFFFF;" version="1.1" viewBox="0 0 178 101" width="178px" zoomAndPan="magnify"><defs/><g><!--class HentDokument--><g id="elem_HentDokument"><rect codeLine="2" fill="#F1F1F1" height="80.9766" id="HentDokument" rx="2.5" ry="2.5" style="stroke:#181818;stroke-width:0.5;" width="157" x="7" y="7"/><ellipse cx="31.9" cy="23" fill="#ADD1B2" rx="11" ry="11" style="stroke:#181818;stroke-width:1.0;"/><path d="M34.3731,29.1431 Q33.7921,29.4419 33.1529,29.5913 Q32.5138,29.7407 31.8082,29.7407 Q29.3014,29.7407 27.9815,28.0889 Q26.6617,26.437 26.6617,23.3159 Q26.6617,20.1865 27.9815,18.5347 Q29.3014,16.8828 31.8082,16.8828 Q32.5138,16.8828 33.1612,17.0322 Q33.8087,17.1816 34.3731,17.4805 L34.3731,20.2031 Q33.7423,19.6221 33.1488,19.3523 Q32.5553,19.0825 31.9244,19.0825 Q30.5797,19.0825 29.8949,20.1492 Q29.2101,21.2158 29.2101,23.3159 Q29.2101,25.4077 29.8949,26.4744 Q30.5797,27.541 31.9244,27.541 Q32.5553,27.541 33.1488,27.2712 Q33.7423,27.0015 34.3731,26.4204 Z " fill="#000000"/><text fill="#000000" font-family="sans-serif" font-size="14" lengthAdjust="spacing" textLength="103" x="48.1" y="28.291">HentDokument</text><line style="stroke:#181818;stroke-width:0.5;" x1="8" x2="163" y1="39" y2="39"/><ellipse cx="18" cy="52.7441" fill="none" rx="3" ry="3" style="stroke:#038048;stroke-width:1.0;"/><text fill="#000000" font-family="sans-serif" font-size="14" lengthAdjust="spacing" textLength="112" x="27" y="56.5352">sesjonsId: string</text><ellipse cx="18" cy="69.2324" fill="none" rx="3" ry="3" style="stroke:#038048;stroke-width:1.0;"/><text fill="#000000" font-family="sans-serif" font-size="14" lengthAdjust="spacing" textLength="131" x="27" y="73.0234">dokumentId: string</text><line style="stroke:#181818;stroke-width:0.5;" x1="8" x2="163" y1="79.9766" y2="79.9766"/></g><!--SRC=[Iyv9B2vMy4ZDAt79poxD1T8ArLmAGA1Td5gSbPzNx9bYfL1SKfIPbmuHJe4gGnAlvG80]--></g></svg>