<svg xmlns="http://www.w3.org/2000/svg" xmlns:xlink="http://www.w3.org/1999/xlink" contentStyleType="text/css" height="118px" preserveAspectRatio="none" style="width:287px;height:118px;background:#FFFFFF;" version="1.1" viewBox="0 0 287 118" width="287px" zoomAndPan="magnify"><defs/><g><!--class HentNaboliste--><g id="elem_HentNaboliste"><rect codeLine="2" fill="#F1F1F1" height="97.4648" id="HentNaboliste" rx="2.5" ry="2.5" style="stroke:#181818;stroke-width:0.5;" width="266" x="7" y="7"/><ellipse cx="87.75" cy="23" fill="#ADD1B2" rx="11" ry="11" style="stroke:#181818;stroke-width:1.0;"/><path d="M90.2231,29.1431 Q89.6421,29.4419 89.0029,29.5913 Q88.3638,29.7407 87.6582,29.7407 Q85.1514,29.7407 83.8315,28.0889 Q82.5117,26.437 82.5117,23.3159 Q82.5117,20.1865 83.8315,18.5347 Q85.1514,16.8828 87.6582,16.8828 Q88.3638,16.8828 89.0112,17.0322 Q89.6587,17.1816 90.2231,17.4805 L90.2231,20.2031 Q89.5923,19.6221 88.9988,19.3523 Q88.4053,19.0825 87.7744,19.0825 Q86.4297,19.0825 85.7449,20.1492 Q85.0601,21.2158 85.0601,23.3159 Q85.0601,25.4077 85.7449,26.4744 Q86.4297,27.541 87.7744,27.541 Q88.4053,27.541 88.9988,27.2712 Q89.5923,27.0015 90.2231,26.4204 Z " fill="#000000"/><text fill="#000000" font-family="sans-serif" font-size="14" lengthAdjust="spacing" textLength="96" x="108.25" y="28.291">HentNaboliste</text><line style="stroke:#181818;stroke-width:0.5;" x1="8" x2="272" y1="39" y2="39"/><ellipse cx="18" cy="52.7441" fill="#000000" rx="3" ry="3" style="stroke:#000000;stroke-width:1.0;"/><text fill="#000000" font-family="sans-serif" font-size="14" lengthAdjust="spacing" textLength="112" x="27" y="56.5352">sesjonsId: string</text><ellipse cx="18" cy="69.2324" fill="#000000" rx="3" ry="3" style="stroke:#000000;stroke-width:1.0;"/><text fill="#000000" font-family="sans-serif" font-size="14" lengthAdjust="spacing" textLength="155" x="27" y="73.0234">inkluderEiere: boolean</text><ellipse cx="18" cy="85.7207" fill="#000000" rx="3" ry="3" style="stroke:#000000;stroke-width:1.0;"/><text fill="#000000" font-family="sans-serif" font-size="14" lengthAdjust="spacing" textLength="240" x="27" y="89.5117">inkluderEiendomadresser: boolean</text><line style="stroke:#181818;stroke-width:0.5;" x1="8" x2="272" y1="96.4648" y2="96.4648"/></g><!--SRC=[POen2e0m40HxNt6rJqWlQECVebaa6k_WDbRYtnKiB9noPkOIIUcXTOoJbSmAEHjvQ0ckfXnI45RFkhmwwrQE1Eyo744ciuAelwR9zfWS9FoxhkO6]--></g></svg>