<svg xmlns="http://www.w3.org/2000/svg" xmlns:xlink="http://www.w3.org/1999/xlink" contentStyleType="text/css" height="85px" preserveAspectRatio="none" style="width:159px;height:85px;background:#FFFFFF;" version="1.1" viewBox="0 0 159 85" width="159px" zoomAndPan="magnify"><defs/><g><!--class HentNaboliste--><g id="elem_HentNaboliste"><rect codeLine="2" fill="#F1F1F1" height="64.4883" id="HentNaboliste" rx="2.5" ry="2.5" style="stroke:#181818;stroke-width:0.5;" width="138" x="7" y="7"/><ellipse cx="26.5" cy="23" fill="#ADD1B2" rx="11" ry="11" style="stroke:#181818;stroke-width:1.0;"/><path d="M28.9731,29.1431 Q28.3921,29.4419 27.7529,29.5913 Q27.1138,29.7407 26.4082,29.7407 Q23.9014,29.7407 22.5815,28.0889 Q21.2617,26.437 21.2617,23.3159 Q21.2617,20.1865 22.5815,18.5347 Q23.9014,16.8828 26.4082,16.8828 Q27.1138,16.8828 27.7612,17.0322 Q28.4087,17.1816 28.9731,17.4805 L28.9731,20.2031 Q28.3423,19.6221 27.7488,19.3523 Q27.1553,19.0825 26.5244,19.0825 Q25.1797,19.0825 24.4949,20.1492 Q23.8101,21.2158 23.8101,23.3159 Q23.8101,25.4077 24.4949,26.4744 Q25.1797,27.541 26.5244,27.541 Q27.1553,27.541 27.7488,27.2712 Q28.3423,27.0015 28.9731,26.4204 Z " fill="#000000"/><text fill="#000000" font-family="sans-serif" font-size="14" lengthAdjust="spacing" textLength="96" x="41.5" y="28.291">HentNaboliste</text><line style="stroke:#181818;stroke-width:0.5;" x1="8" x2="144" y1="39" y2="39"/><ellipse cx="18" cy="52.7441" fill="none" rx="3" ry="3" style="stroke:#038048;stroke-width:1.0;"/><text fill="#000000" font-family="sans-serif" font-size="14" lengthAdjust="spacing" textLength="112" x="27" y="56.5352">sesjonsId: string</text><line style="stroke:#181818;stroke-width:0.5;" x1="8" x2="144" y1="63.4883" y2="63.4883"/></g><!--SRC=[Iyv9B2vMy4ZDA_5BJChFoImkILMevb800ktYrEAi_BnYpnGhXUAIeioyTAvQBW00]--></g></svg>