<svg xmlns="http://www.w3.org/2000/svg" xmlns:xlink="http://www.w3.org/1999/xlink" contentStyleType="text/css" height="85px" preserveAspectRatio="none" style="width:159px;height:85px;background:#FFFFFF;" version="1.1" viewBox="0 0 159 85" width="159px" zoomAndPan="magnify"><defs/><g><!--class HentFlate--><g id="elem_HentFlate"><rect codeLine="2" fill="#F1F1F1" height="64.4883" id="HentFlate" rx="2.5" ry="2.5" style="stroke:#181818;stroke-width:0.5;" width="138" x="7" y="7"/><ellipse cx="40.45" cy="23" fill="#ADD1B2" rx="11" ry="11" style="stroke:#181818;stroke-width:1.0;"/><path d="M42.9231,29.1431 Q42.3421,29.4419 41.7029,29.5913 Q41.0638,29.7407 40.3582,29.7407 Q37.8514,29.7407 36.5315,28.0889 Q35.2117,26.437 35.2117,23.3159 Q35.2117,20.1865 36.5315,18.5347 Q37.8514,16.8828 40.3582,16.8828 Q41.0638,16.8828 41.7112,17.0322 Q42.3587,17.1816 42.9231,17.4805 L42.9231,20.2031 Q42.2923,19.6221 41.6988,19.3523 Q41.1053,19.0825 40.4744,19.0825 Q39.1297,19.0825 38.4449,20.1492 Q37.7601,21.2158 37.7601,23.3159 Q37.7601,25.4077 38.4449,26.4744 Q39.1297,27.541 40.4744,27.541 Q41.1053,27.541 41.6988,27.2712 Q42.2923,27.0015 42.9231,26.4204 Z " fill="#000000"/><text fill="#000000" font-family="sans-serif" font-size="14" lengthAdjust="spacing" textLength="65" x="58.55" y="28.291">HentFlate</text><line style="stroke:#181818;stroke-width:0.5;" x1="8" x2="144" y1="39" y2="39"/><ellipse cx="18" cy="52.7441" fill="none" rx="3" ry="3" style="stroke:#038048;stroke-width:1.0;"/><text fill="#000000" font-family="sans-serif" font-size="14" lengthAdjust="spacing" textLength="112" x="27" y="56.5352">sesjonsId: string</text><line style="stroke:#181818;stroke-width:0.5;" x1="8" x2="144" y1="63.4883" y2="63.4883"/></g><!--SRC=[Iyv9B2vMy4ZDAt7BIIn9LQZcKW02xUBKugpyl6BF52k5ufAYpBnqhbek0000]--></g></svg>