<svg xmlns="http://www.w3.org/2000/svg" xmlns:xlink="http://www.w3.org/1999/xlink" contentStyleType="text/css" height="343px" preserveAspectRatio="none" style="width:238px;height:343px;background:#FFFFFF;" version="1.1" viewBox="0 0 238 343" width="238px" zoomAndPan="magnify"><defs/><g><!--class HentFlateResultat--><g id="elem_HentFlateResultat"><rect codeLine="2" fill="#F1F1F1" height="64.4883" id="HentFlateResultat" rx="2.5" ry="2.5" style="stroke:#181818;stroke-width:0.5;" width="152" x="43" y="7"/><ellipse cx="58" cy="23" fill="#ADD1B2" rx="11" ry="11" style="stroke:#181818;stroke-width:1.0;"/><path d="M60.4731,29.1431 Q59.8921,29.4419 59.2529,29.5913 Q58.6138,29.7407 57.9082,29.7407 Q55.4014,29.7407 54.0815,28.0889 Q52.7617,26.437 52.7617,23.3159 Q52.7617,20.1865 54.0815,18.5347 Q55.4014,16.8828 57.9082,16.8828 Q58.6138,16.8828 59.2612,17.0322 Q59.9087,17.1816 60.4731,17.4805 L60.4731,20.2031 Q59.8423,19.6221 59.2488,19.3523 Q58.6553,19.0825 58.0244,19.0825 Q56.6797,19.0825 55.9949,20.1492 Q55.3101,21.2158 55.3101,23.3159 Q55.3101,25.4077 55.9949,26.4744 Q56.6797,27.541 58.0244,27.541 Q58.6553,27.541 59.2488,27.2712 Q59.8423,27.0015 60.4731,26.4204 Z " fill="#000000"/><text fill="#000000" font-family="sans-serif" font-size="14" lengthAdjust="spacing" textLength="120" x="72" y="28.291">HentFlateResultat</text><line style="stroke:#181818;stroke-width:0.5;" x1="44" x2="194" y1="39" y2="39"/><ellipse cx="54" cy="52.7441" fill="none" rx="3" ry="3" style="stroke:#038048;stroke-width:1.0;"/><text fill="#000000" font-family="sans-serif" font-size="14" lengthAdjust="spacing" textLength="102" x="63" y="56.5352">omraade: Flate</text><line style="stroke:#181818;stroke-width:0.5;" x1="44" x2="194" y1="63.4883" y2="63.4883"/></g><!--class Flate--><g id="elem_Flate"><rect codeLine="8" fill="#F1F1F1" height="97.4648" id="Flate" rx="2.5" ry="2.5" style="stroke:#181818;stroke-width:0.5;" width="224" x="7" y="131.49"/><ellipse cx="98.25" cy="147.49" fill="#ADD1B2" rx="11" ry="11" style="stroke:#181818;stroke-width:1.0;"/><path d="M100.7231,153.6331 Q100.1421,153.9319 99.5029,154.0813 Q98.8638,154.2307 98.1582,154.2307 Q95.6514,154.2307 94.3315,152.5789 Q93.0117,150.927 93.0117,147.8059 Q93.0117,144.6765 94.3315,143.0247 Q95.6514,141.3728 98.1582,141.3728 Q98.8638,141.3728 99.5112,141.5222 Q100.1587,141.6716 100.7231,141.9705 L100.7231,144.6931 Q100.0923,144.1121 99.4988,143.8423 Q98.9053,143.5725 98.2744,143.5725 Q96.9297,143.5725 96.2449,144.6392 Q95.5601,145.7058 95.5601,147.8059 Q95.5601,149.8977 96.2449,150.9644 Q96.9297,152.031 98.2744,152.031 Q98.9053,152.031 99.4988,151.7612 Q100.0923,151.4915 100.7231,150.9104 Z " fill="#000000"/><text fill="#000000" font-family="sans-serif" font-size="14" lengthAdjust="spacing" textLength="33" x="118.75" y="152.781">Flate</text><line style="stroke:#181818;stroke-width:0.5;" x1="8" x2="230" y1="163.49" y2="163.49"/><ellipse cx="18" cy="177.2341" fill="none" rx="3" ry="3" style="stroke:#038048;stroke-width:1.0;"/><text fill="#000000" font-family="sans-serif" font-size="14" lengthAdjust="spacing" textLength="77" x="27" y="181.0252">type: string</text><ellipse cx="18" cy="193.7224" fill="none" rx="3" ry="3" style="stroke:#038048;stroke-width:1.0;"/><text fill="#000000" font-family="sans-serif" font-size="14" lengthAdjust="spacing" textLength="198" x="27" y="197.5134">koordinater: array[number[]]</text><ellipse cx="18" cy="210.2107" fill="none" rx="3" ry="3" style="stroke:#038048;stroke-width:1.0;"/><text fill="#000000" font-family="sans-serif" font-size="14" lengthAdjust="spacing" textLength="157" x="27" y="214.0017">koordinatsystem: Kode</text><line style="stroke:#181818;stroke-width:0.5;" x1="8" x2="230" y1="220.9548" y2="220.9548"/></g><!--class Kode--><g id="elem_Kode"><rect fill="#F1F1F1" height="48" id="Kode" rx="2.5" ry="2.5" style="stroke:#181818;stroke-width:0.5;" width="67" x="85.5" y="288.95"/><ellipse cx="100.5" cy="304.95" fill="#ADD1B2" rx="11" ry="11" style="stroke:#181818;stroke-width:1.0;"/><path d="M102.9731,311.0931 Q102.3921,311.3919 101.7529,311.5413 Q101.1138,311.6907 100.4082,311.6907 Q97.9014,311.6907 96.5815,310.0389 Q95.2617,308.387 95.2617,305.2659 Q95.2617,302.1365 96.5815,300.4847 Q97.9014,298.8328 100.4082,298.8328 Q101.1138,298.8328 101.7612,298.9822 Q102.4087,299.1316 102.9731,299.4305 L102.9731,302.1531 Q102.3423,301.5721 101.7488,301.3023 Q101.1553,301.0325 100.5244,301.0325 Q99.1797,301.0325 98.4949,302.0992 Q97.8101,303.1658 97.8101,305.2659 Q97.8101,307.3577 98.4949,308.4244 Q99.1797,309.491 100.5244,309.491 Q101.1553,309.491 101.7488,309.2212 Q102.3423,308.9515 102.9731,308.3704 Z " fill="#000000"/><text fill="#000000" font-family="sans-serif" font-size="14" lengthAdjust="spacing" textLength="35" x="114.5" y="310.241">Kode</text><line style="stroke:#181818;stroke-width:0.5;" x1="86.5" x2="151.5" y1="320.95" y2="320.95"/><line style="stroke:#181818;stroke-width:0.5;" x1="86.5" x2="151.5" y1="328.95" y2="328.95"/></g><!--link HentFlateResultat to Flate--><g id="link_HentFlateResultat_Flate"><path codeLine="6" d="M119,71.78 C119,89.32 119,111.51 119,131.16 " fill="none" id="HentFlateResultat-Flate" style="stroke:#181818;stroke-width:1.0;"/></g><!--link Flate to Kode--><g id="link_Flate_Kode"><path codeLine="14" d="M119,229.16 C119,249.41 119,272.08 119,288.57 " fill="none" id="Flate-Kode" style="stroke:#181818;stroke-width:1.0;"/></g><!--SRC=[POqx3i9034Hxdy8zoWNs00Y9ZZPAOR8MYjWFifrYXRWxAmUQnDtCFC_CYLJnmiNEYOnlh6ioCdm3zZlLB4IH0teA7u0ZEWo_56OlS_4liFRgtsgobCVcF6kLk9JEI40IeJQMDTzPncdQ4ThKE0UyrkZRMtFVS-CB]--></g></svg>